<?xml version="1.0" encoding="UTF-8" standalone="no"?>
<!DOCTYPE svg PUBLIC "-//W3C//DTD SVG 1.1//EN"
 "http://www.w3.org/Graphics/SVG/1.1/DTD/svg11.dtd">
<!-- Generated by graphviz version 7.0.4 (20221203.1631)
 -->
<!-- Pages: 1 -->
<svg width="627pt" height="1825pt"
 viewBox="0.00 0.00 627.00 1825.00" xmlns="http://www.w3.org/2000/svg" xmlns:xlink="http://www.w3.org/1999/xlink">
<g id="graph0" class="graph" transform="scale(1 1) rotate(0) translate(4 1821)">
<polygon fill="white" stroke="none" points="-4,4 -4,-1821 623,-1821 623,4 -4,4"/>
<g id="clust1" class="cluster">
<title>cluster_wt_ckpt</title>
<polygon fill="none" stroke="black" points="355,-1539 355,-1786 611,-1786 611,-1539 355,-1539"/>
<text text-anchor="middle" x="483" y="-1770.8" font-family="Times,serif" font-size="14.00">__wt_ckpt</text>
</g>
<g id="clust2" class="cluster">
<title>cluster_wt_btree</title>
<polygon fill="none" stroke="black" points="8,-8 8,-1809 335,-1809 335,-8 8,-8"/>
<text text-anchor="middle" x="171.5" y="-1793.8" font-family="Times,serif" font-size="14.00">wt_btree</text>
</g>
<!-- wt_ckpt -->
<g id="node1" class="node">
<title>wt_ckpt</title>
<polygon fill="none" stroke="black" points="363,-1547.5 363,-1754.5 603,-1754.5 603,-1547.5 363,-1547.5"/>
<text text-anchor="middle" x="483" y="-1739.3" font-family="Times,serif" font-size="14.00">char *name</text>
<polyline fill="none" stroke="black" points="363,-1731.5 603,-1731.5"/>
<text text-anchor="middle" x="483" y="-1716.3" font-family="Times,serif" font-size="14.00">WT_ITEM addr</text>
<polyline fill="none" stroke="black" points="363,-1708.5 603,-1708.5"/>
<text text-anchor="middle" x="483" y="-1693.3" font-family="Times,serif" font-size="14.00">WT_ITEM raw</text>
<polyline fill="none" stroke="black" points="363,-1685.5 603,-1685.5"/>
<text text-anchor="middle" x="483" y="-1670.3" font-family="Times,serif" font-size="14.00">int64_t order</text>
<polyline fill="none" stroke="black" points="363,-1662.5 603,-1662.5"/>
<text text-anchor="middle" x="483" y="-1647.3" font-family="Times,serif" font-size="14.00">uintmax_t sec</text>
<polyline fill="none" stroke="black" points="363,-1639.5 603,-1639.5"/>
<text text-anchor="middle" x="483" y="-1624.3" font-family="Times,serif" font-size="14.00">uint64_t ckpt_size</text>
<polyline fill="none" stroke="black" points="363,-1616.5 603,-1616.5"/>
<text text-anchor="middle" x="483" y="-1601.3" font-family="Times,serif" font-size="14.00">uint64_t write_gen</text>
<polyline fill="none" stroke="black" points="363,-1593.5 603,-1593.5"/>
<text text-anchor="middle" x="483" y="-1578.3" font-family="Times,serif" font-size="14.00">void *bpriv; /* Block manager private */</text>
<polyline fill="none" stroke="black" points="363,-1570.5 603,-1570.5"/>
<text text-anchor="middle" x="483" y="-1555.3" font-family="Times,serif" font-size="14.00">uint32_t flags</text>
</g>
<!-- wt_btree -->
<g id="node2" class="node">
<title>wt_btree</title>
<polygon fill="none" stroke="black" points="16,-16.5 16,-1777.5 327,-1777.5 327,-16.5 16,-16.5"/>
<text text-anchor="middle" x="171.5" y="-1762.3" font-family="Times,serif" font-size="14.00">WT_DATA_HANDLE *dhandle</text>
<polyline fill="none" stroke="black" points="16,-1754.5 327,-1754.5"/>
<text text-anchor="middle" x="171.5" y="-1739.3" font-family="Times,serif" font-size="14.00">WT_CKPT *ckpt</text>
<polyline fill="none" stroke="black" points="16,-1731.5 327,-1731.5"/>
<text text-anchor="middle" x="171.5" y="-1716.3" font-family="Times,serif" font-size="14.00">const char *key_format</text>
<polyline fill="none" stroke="black" points="16,-1708.5 327,-1708.5"/>
<text text-anchor="middle" x="171.5" y="-1693.3" font-family="Times,serif" font-size="14.00">const char *value_format</text>
<polyline fill="none" stroke="black" points="16,-1685.5 327,-1685.5"/>
<text text-anchor="middle" x="171.5" y="-1670.3" font-family="Times,serif" font-size="14.00">uint8_t bitcnt</text>
<polyline fill="none" stroke="black" points="16,-1662.5 327,-1662.5"/>
<text text-anchor="middle" x="171.5" y="-1647.3" font-family="Times,serif" font-size="14.00">WT_COLLATOR *collator</text>
<polyline fill="none" stroke="black" points="16,-1639.5 327,-1639.5"/>
<text text-anchor="middle" x="171.5" y="-1624.3" font-family="Times,serif" font-size="14.00">int collator_owned</text>
<polyline fill="none" stroke="black" points="16,-1616.5 327,-1616.5"/>
<text text-anchor="middle" x="171.5" y="-1601.3" font-family="Times,serif" font-size="14.00">uint32_t id</text>
<polyline fill="none" stroke="black" points="16,-1593.5 327,-1593.5"/>
<text text-anchor="middle" x="171.5" y="-1578.3" font-family="Times,serif" font-size="14.00">uint32_t key_gap</text>
<polyline fill="none" stroke="black" points="16,-1570.5 327,-1570.5"/>
<text text-anchor="middle" x="171.5" y="-1555.3" font-family="Times,serif" font-size="14.00">uint32_t allocsize</text>
<polyline fill="none" stroke="black" points="16,-1547.5 327,-1547.5"/>
<text text-anchor="middle" x="171.5" y="-1532.3" font-family="Times,serif" font-size="14.00">uint32_t maxintlpage</text>
<polyline fill="none" stroke="black" points="16,-1524.5 327,-1524.5"/>
<text text-anchor="middle" x="171.5" y="-1509.3" font-family="Times,serif" font-size="14.00">uint32_t maxintlkey</text>
<polyline fill="none" stroke="black" points="16,-1501.5 327,-1501.5"/>
<text text-anchor="middle" x="171.5" y="-1486.3" font-family="Times,serif" font-size="14.00">uint32_t maxleafpage</text>
<polyline fill="none" stroke="black" points="16,-1478.5 327,-1478.5"/>
<text text-anchor="middle" x="171.5" y="-1463.3" font-family="Times,serif" font-size="14.00">uint32_t maxleafkey</text>
<polyline fill="none" stroke="black" points="16,-1455.5 327,-1455.5"/>
<text text-anchor="middle" x="171.5" y="-1440.3" font-family="Times,serif" font-size="14.00">uint32_t maxleafvalue</text>
<polyline fill="none" stroke="black" points="16,-1432.5 327,-1432.5"/>
<text text-anchor="middle" x="171.5" y="-1417.3" font-family="Times,serif" font-size="14.00">uint64_t maxmempage</text>
<polyline fill="none" stroke="black" points="16,-1409.5 327,-1409.5"/>
<text text-anchor="middle" x="171.5" y="-1394.3" font-family="Times,serif" font-size="14.00">uint32_t maxmempage_image</text>
<polyline fill="none" stroke="black" points="16,-1386.5 327,-1386.5"/>
<text text-anchor="middle" x="171.5" y="-1371.3" font-family="Times,serif" font-size="14.00">uint64_t splitmempage</text>
<polyline fill="none" stroke="black" points="16,-1363.5 327,-1363.5"/>
<text text-anchor="middle" x="171.5" y="-1348.3" font-family="Times,serif" font-size="14.00">uint32_t assert_flags</text>
<polyline fill="none" stroke="black" points="16,-1340.5 327,-1340.5"/>
<text text-anchor="middle" x="171.5" y="-1325.3" font-family="Times,serif" font-size="14.00">void *huffman_key</text>
<polyline fill="none" stroke="black" points="16,-1317.5 327,-1317.5"/>
<text text-anchor="middle" x="171.5" y="-1302.3" font-family="Times,serif" font-size="14.00">void *huffman_value</text>
<polyline fill="none" stroke="black" points="16,-1294.5 327,-1294.5"/>
<text text-anchor="middle" x="171.5" y="-1279.3" font-family="Times,serif" font-size="14.00">u_int dictionary</text>
<polyline fill="none" stroke="black" points="16,-1271.5 327,-1271.5"/>
<text text-anchor="middle" x="171.5" y="-1256.3" font-family="Times,serif" font-size="14.00">bool internal_key_truncate</text>
<polyline fill="none" stroke="black" points="16,-1248.5 327,-1248.5"/>
<text text-anchor="middle" x="171.5" y="-1233.3" font-family="Times,serif" font-size="14.00">bool prefix_compression</text>
<polyline fill="none" stroke="black" points="16,-1225.5 327,-1225.5"/>
<text text-anchor="middle" x="171.5" y="-1210.3" font-family="Times,serif" font-size="14.00">u_int prefix_compression_min</text>
<polyline fill="none" stroke="black" points="16,-1202.5 327,-1202.5"/>
<text text-anchor="middle" x="171.5" y="-1187.3" font-family="Times,serif" font-size="14.00">u_int split_deepen_min_child</text>
<polyline fill="none" stroke="black" points="16,-1179.5 327,-1179.5"/>
<text text-anchor="middle" x="171.5" y="-1164.3" font-family="Times,serif" font-size="14.00">u_int split_deepen_per_child</text>
<polyline fill="none" stroke="black" points="16,-1156.5 327,-1156.5"/>
<text text-anchor="middle" x="171.5" y="-1141.3" font-family="Times,serif" font-size="14.00">int split_pct</text>
<polyline fill="none" stroke="black" points="16,-1133.5 327,-1133.5"/>
<text text-anchor="middle" x="171.5" y="-1118.3" font-family="Times,serif" font-size="14.00">WT_COMPRESSOR *compressor</text>
<polyline fill="none" stroke="black" points="16,-1110.5 327,-1110.5"/>
<text text-anchor="middle" x="171.5" y="-1095.3" font-family="Times,serif" font-size="14.00">bool leafpage_compadjust</text>
<polyline fill="none" stroke="black" points="16,-1087.5 327,-1087.5"/>
<text text-anchor="middle" x="171.5" y="-1072.3" font-family="Times,serif" font-size="14.00">uint64_t maxleafpage_precomp</text>
<polyline fill="none" stroke="black" points="16,-1064.5 327,-1064.5"/>
<text text-anchor="middle" x="171.5" y="-1049.3" font-family="Times,serif" font-size="14.00">bool intlpage_compadjust</text>
<polyline fill="none" stroke="black" points="16,-1041.5 327,-1041.5"/>
<text text-anchor="middle" x="171.5" y="-1026.3" font-family="Times,serif" font-size="14.00">uint64_t maxintlpage_precomp</text>
<polyline fill="none" stroke="black" points="16,-1018.5 327,-1018.5"/>
<text text-anchor="middle" x="171.5" y="-1003.3" font-family="Times,serif" font-size="14.00">WT_KEYED_ENCRYPTOR *kencryptor</text>
<polyline fill="none" stroke="black" points="16,-995.5 327,-995.5"/>
<text text-anchor="middle" x="171.5" y="-980.3" font-family="Times,serif" font-size="14.00">WT_RWLOCK ovfl_lock</text>
<polyline fill="none" stroke="black" points="16,-972.5 327,-972.5"/>
<text text-anchor="middle" x="171.5" y="-957.3" font-family="Times,serif" font-size="14.00">int maximum_depth</text>
<polyline fill="none" stroke="black" points="16,-949.5 327,-949.5"/>
<text text-anchor="middle" x="171.5" y="-934.3" font-family="Times,serif" font-size="14.00">u_int rec_multiblock_max</text>
<polyline fill="none" stroke="black" points="16,-926.5 327,-926.5"/>
<text text-anchor="middle" x="171.5" y="-911.3" font-family="Times,serif" font-size="14.00">uint64_t last_recno</text>
<polyline fill="none" stroke="black" points="16,-903.5 327,-903.5"/>
<text text-anchor="middle" x="171.5" y="-888.3" font-family="Times,serif" font-size="14.00">WT_REF root</text>
<polyline fill="none" stroke="black" points="16,-880.5 327,-880.5"/>
<text text-anchor="middle" x="171.5" y="-865.3" font-family="Times,serif" font-size="14.00">bool modified</text>
<polyline fill="none" stroke="black" points="16,-857.5 327,-857.5"/>
<text text-anchor="middle" x="171.5" y="-842.3" font-family="Times,serif" font-size="14.00">uint8_t original</text>
<polyline fill="none" stroke="black" points="16,-834.5 327,-834.5"/>
<text text-anchor="middle" x="171.5" y="-819.3" font-family="Times,serif" font-size="14.00">bool lookaside_entries</text>
<polyline fill="none" stroke="black" points="16,-811.5 327,-811.5"/>
<text text-anchor="middle" x="171.5" y="-796.3" font-family="Times,serif" font-size="14.00">bool lsm_primary</text>
<polyline fill="none" stroke="black" points="16,-788.5 327,-788.5"/>
<text text-anchor="middle" x="171.5" y="-773.3" font-family="Times,serif" font-size="14.00">WT_BM *bm</text>
<polyline fill="none" stroke="black" points="16,-765.5 327,-765.5"/>
<text text-anchor="middle" x="171.5" y="-750.3" font-family="Times,serif" font-size="14.00">u_int block_heade</text>
<polyline fill="none" stroke="black" points="16,-742.5 327,-742.5"/>
<text text-anchor="middle" x="171.5" y="-727.3" font-family="Times,serif" font-size="14.00">uint64_t write_gen</text>
<polyline fill="none" stroke="black" points="16,-719.5 327,-719.5"/>
<text text-anchor="middle" x="171.5" y="-704.3" font-family="Times,serif" font-size="14.00">uint64_t rec_max_txn</text>
<polyline fill="none" stroke="black" points="16,-696.5 327,-696.5"/>
<text text-anchor="middle" x="171.5" y="-681.3" font-family="Times,serif" font-size="14.00">wt_timestamp_t rec_max_timestamp</text>
<polyline fill="none" stroke="black" points="16,-673.5 327,-673.5"/>
<text text-anchor="middle" x="171.5" y="-658.3" font-family="Times,serif" font-size="14.00">uint64_t checkpoint_gen</text>
<polyline fill="none" stroke="black" points="16,-650.5 327,-650.5"/>
<text text-anchor="middle" x="171.5" y="-635.3" font-family="Times,serif" font-size="14.00">WT_SESSION_IMPL *sync_session</text>
<polyline fill="none" stroke="black" points="16,-627.5 327,-627.5"/>
<text text-anchor="middle" x="171.5" y="-612.3" font-family="Times,serif" font-size="14.00">volatile enum{</text>
<text text-anchor="middle" x="171.5" y="-597.3" font-family="Times,serif" font-size="14.00">WT_BTREE_SYNC_OFF,</text>
<text text-anchor="middle" x="171.5" y="-582.3" font-family="Times,serif" font-size="14.00"> WT_BTREE_SYNC_WAIT,</text>
<text text-anchor="middle" x="171.5" y="-567.3" font-family="Times,serif" font-size="14.00"> WT_BTREE_SYNC_RUNNING}syncing</text>
<polyline fill="none" stroke="black" points="16,-559.5 327,-559.5"/>
<text text-anchor="middle" x="171.5" y="-544.3" font-family="Times,serif" font-size="14.00">uint64_t bytes_inmem</text>
<polyline fill="none" stroke="black" points="16,-536.5 327,-536.5"/>
<text text-anchor="middle" x="171.5" y="-521.3" font-family="Times,serif" font-size="14.00">uint64_t bytes_dirty_intl</text>
<polyline fill="none" stroke="black" points="16,-513.5 327,-513.5"/>
<text text-anchor="middle" x="171.5" y="-498.3" font-family="Times,serif" font-size="14.00">uint64_t bytes_dirty_leaf</text>
<polyline fill="none" stroke="black" points="16,-490.5 327,-490.5"/>
<text text-anchor="middle" x="171.5" y="-475.3" font-family="Times,serif" font-size="14.00">uint64_t bytes_dirty_total</text>
<polyline fill="none" stroke="black" points="16,-467.5 327,-467.5"/>
<text text-anchor="middle" x="171.5" y="-452.3" font-family="Times,serif" font-size="14.00">uint64_t file_max</text>
<polyline fill="none" stroke="black" points="16,-444.5 327,-444.5"/>
<text text-anchor="middle" x="171.5" y="-429.3" font-family="Times,serif" font-size="14.00">WT_SPINLOCK flush_lock</text>
<polyline fill="none" stroke="black" points="16,-421.5 327,-421.5"/>
<text text-anchor="middle" x="171.5" y="-406.3" font-family="Times,serif" font-size="14.00">WT_REF *evict_ref</text>
<polyline fill="none" stroke="black" points="16,-398.5 327,-398.5"/>
<text text-anchor="middle" x="171.5" y="-383.3" font-family="Times,serif" font-size="14.00">uint64_t evict_priority</text>
<polyline fill="none" stroke="black" points="16,-375.5 327,-375.5"/>
<text text-anchor="middle" x="171.5" y="-360.3" font-family="Times,serif" font-size="14.00">uint32_t evict_walk_progress</text>
<polyline fill="none" stroke="black" points="16,-352.5 327,-352.5"/>
<text text-anchor="middle" x="171.5" y="-337.3" font-family="Times,serif" font-size="14.00">uint32_t evict_walk_target</text>
<polyline fill="none" stroke="black" points="16,-329.5 327,-329.5"/>
<text text-anchor="middle" x="171.5" y="-314.3" font-family="Times,serif" font-size="14.00">u_int evict_walk_period</text>
<polyline fill="none" stroke="black" points="16,-306.5 327,-306.5"/>
<text text-anchor="middle" x="171.5" y="-291.3" font-family="Times,serif" font-size="14.00">u_int evict_walk_period</text>
<polyline fill="none" stroke="black" points="16,-283.5 327,-283.5"/>
<text text-anchor="middle" x="171.5" y="-268.3" font-family="Times,serif" font-size="14.00">u_int evict_walk_saved</text>
<polyline fill="none" stroke="black" points="16,-260.5 327,-260.5"/>
<text text-anchor="middle" x="171.5" y="-245.3" font-family="Times,serif" font-size="14.00">u_int evict_walk_skips</text>
<polyline fill="none" stroke="black" points="16,-237.5 327,-237.5"/>
<text text-anchor="middle" x="171.5" y="-222.3" font-family="Times,serif" font-size="14.00">int32_t evict_disabled</text>
<polyline fill="none" stroke="black" points="16,-214.5 327,-214.5"/>
<text text-anchor="middle" x="171.5" y="-199.3" font-family="Times,serif" font-size="14.00">bool evict_disabled_open</text>
<polyline fill="none" stroke="black" points="16,-191.5 327,-191.5"/>
<text text-anchor="middle" x="171.5" y="-176.3" font-family="Times,serif" font-size="14.00">volatile uint32_t evict_busy</text>
<polyline fill="none" stroke="black" points="16,-168.5 327,-168.5"/>
<text text-anchor="middle" x="171.5" y="-153.3" font-family="Times,serif" font-size="14.00">bool evict_disabled_open</text>
<polyline fill="none" stroke="black" points="16,-145.5 327,-145.5"/>
<text text-anchor="middle" x="171.5" y="-130.3" font-family="Times,serif" font-size="14.00">volatile uint32_t evict_busy</text>
<polyline fill="none" stroke="black" points="16,-122.5 327,-122.5"/>
<text text-anchor="middle" x="171.5" y="-107.3" font-family="Times,serif" font-size="14.00">enum{</text>
<text text-anchor="middle" x="171.5" y="-92.3" font-family="Times,serif" font-size="14.00">WT_EVICT_WALK_NEXT,</text>
<text text-anchor="middle" x="171.5" y="-77.3" font-family="Times,serif" font-size="14.00">WT_EVICT_WALK_PREV,</text>
<text text-anchor="middle" x="171.5" y="-62.3" font-family="Times,serif" font-size="14.00">WT_EVICT_WALK_RAND_NEXT,</text>
<text text-anchor="middle" x="171.5" y="-47.3" font-family="Times,serif" font-size="14.00">WT_EVICT_WALK_RAND_PREV}evict_start_type</text>
<polyline fill="none" stroke="black" points="16,-39.5 327,-39.5"/>
<text text-anchor="middle" x="171.5" y="-24.3" font-family="Times,serif" font-size="14.00">uint32_t flags</text>
</g>
<!-- wt_btree&#45;&gt;wt_ckpt -->
<g id="edge1" class="edge">
<title>wt_btree:ckpt&#45;&gt;wt_ckpt:header</title>
<path fill="none" stroke="black" d="M328.5,-1743C338.74,-1743 343.69,-1743 350.63,-1743"/>
<polygon fill="black" stroke="black" points="350.49,-1746.5 360.49,-1743 350.49,-1739.5 350.49,-1746.5"/>
</g>
</g>
</svg>
