<?xml version="1.0" encoding="UTF-8" standalone="no"?>
<!DOCTYPE svg PUBLIC "-//W3C//DTD SVG 1.1//EN"
 "http://www.w3.org/Graphics/SVG/1.1/DTD/svg11.dtd">
<!-- Generated by graphviz version 7.0.4 (20221203.1631)
 -->
<!-- Pages: 1 -->
<svg width="246pt" height="732pt"
 viewBox="0.00 0.00 246.00 732.00" xmlns="http://www.w3.org/2000/svg" xmlns:xlink="http://www.w3.org/1999/xlink">
<g id="graph0" class="graph" transform="scale(1 1) rotate(0) translate(4 728)">
<polygon fill="white" stroke="none" points="-4,4 -4,-728 242,-728 242,4 -4,4"/>
<g id="clust1" class="cluster">
<title>cluster_cache</title>
<polygon fill="none" stroke="black" points="8,-8 8,-716 230,-716 230,-8 8,-8"/>
</g>
<!-- __wt_cache -->
<g id="node1" class="node">
<title>__wt_cache</title>
<polygon fill="none" stroke="black" points="16,-17 16,-707 222,-707 222,-17 16,-17"/>
<text text-anchor="middle" x="119" y="-691.8" font-family="Times,serif" font-size="14.00">uint64_t bytes_dirty_intl</text>
<polyline fill="none" stroke="black" points="16,-684 222,-684"/>
<text text-anchor="middle" x="119" y="-668.8" font-family="Times,serif" font-size="14.00">uint64_t pages_dirty_intl</text>
<polyline fill="none" stroke="black" points="16,-661 222,-661"/>
<text text-anchor="middle" x="119" y="-645.8" font-family="Times,serif" font-size="14.00">uint64_t bytes_dirty_leaf</text>
<polyline fill="none" stroke="black" points="16,-638 222,-638"/>
<text text-anchor="middle" x="119" y="-622.8" font-family="Times,serif" font-size="14.00">uint64_t bytes_dirty_total</text>
<polyline fill="none" stroke="black" points="16,-615 222,-615"/>
<text text-anchor="middle" x="119" y="-599.8" font-family="Times,serif" font-size="14.00">uint64_t pages_dirty_leaf</text>
<polyline fill="none" stroke="black" points="16,-592 222,-592"/>
<text text-anchor="middle" x="119" y="-576.8" font-family="Times,serif" font-size="14.00">uint64_t bytes_evict</text>
<polyline fill="none" stroke="black" points="16,-569 222,-569"/>
<text text-anchor="middle" x="119" y="-553.8" font-family="Times,serif" font-size="14.00">uint64_t pages_evicted</text>
<polyline fill="none" stroke="black" points="16,-546 222,-546"/>
<text text-anchor="middle" x="119" y="-530.8" font-family="Times,serif" font-size="14.00">uint64_t bytes_image</text>
<polyline fill="none" stroke="black" points="16,-523 222,-523"/>
<text text-anchor="middle" x="119" y="-507.8" font-family="Times,serif" font-size="14.00">uint64_t bytes_inmem</text>
<polyline fill="none" stroke="black" points="16,-500 222,-500"/>
<text text-anchor="middle" x="119" y="-484.8" font-family="Times,serif" font-size="14.00">uint64_t bytes_internal</text>
<polyline fill="none" stroke="black" points="16,-477 222,-477"/>
<text text-anchor="middle" x="119" y="-461.8" font-family="Times,serif" font-size="14.00">uint64_t bytes_read</text>
<polyline fill="none" stroke="black" points="16,-454 222,-454"/>
<text text-anchor="middle" x="119" y="-438.8" font-family="Times,serif" font-size="14.00">uint64_t bytes_written</text>
<polyline fill="none" stroke="black" points="16,-431 222,-431"/>
<text text-anchor="middle" x="119" y="-415.8" font-family="Times,serif" font-size="14.00">uint64_t bytes_lookaside</text>
<polyline fill="none" stroke="black" points="16,-408 222,-408"/>
<text text-anchor="middle" x="119" y="-392.8" font-family="Times,serif" font-size="14.00">volatile uint64_t eviction_progress</text>
<polyline fill="none" stroke="black" points="16,-385 222,-385"/>
<text text-anchor="middle" x="119" y="-369.8" font-family="Times,serif" font-size="14.00">uint64_t last_eviction_progress</text>
<polyline fill="none" stroke="black" points="16,-362 222,-362"/>
<text text-anchor="middle" x="119" y="-346.8" font-family="Times,serif" font-size="14.00">uint64_t app_waits</text>
<polyline fill="none" stroke="black" points="16,-339 222,-339"/>
<text text-anchor="middle" x="119" y="-323.8" font-family="Times,serif" font-size="14.00">uint64_t app_evicts</text>
<polyline fill="none" stroke="black" points="16,-316 222,-316"/>
<text text-anchor="middle" x="119" y="-300.8" font-family="Times,serif" font-size="14.00">uint64_t server_evicts</text>
<polyline fill="none" stroke="black" points="16,-293 222,-293"/>
<text text-anchor="middle" x="119" y="-277.8" font-family="Times,serif" font-size="14.00">uint64_t worker_evicts</text>
<polyline fill="none" stroke="black" points="16,-270 222,-270"/>
<text text-anchor="middle" x="119" y="-254.8" font-family="Times,serif" font-size="14.00">uint64_t evict_max_page_size</text>
<polyline fill="none" stroke="black" points="16,-247 222,-247"/>
<text text-anchor="middle" x="119" y="-231.8" font-family="Times,serif" font-size="14.00">struct timespec stuck_time</text>
<polyline fill="none" stroke="black" points="16,-224 222,-224"/>
<text text-anchor="middle" x="119" y="-208.8" font-family="Times,serif" font-size="14.00">uint64_t read_gen</text>
<polyline fill="none" stroke="black" points="16,-201 222,-201"/>
<text text-anchor="middle" x="119" y="-185.8" font-family="Times,serif" font-size="14.00">uint64_t read_gen_oldest</text>
<polyline fill="none" stroke="black" points="16,-178 222,-178"/>
<text text-anchor="middle" x="119" y="-162.8" font-family="Times,serif" font-size="14.00">uint64_t evict_pass_gen</text>
<polyline fill="none" stroke="black" points="16,-155 222,-155"/>
<text text-anchor="middle" x="119" y="-139.8" font-family="Times,serif" font-size="14.00">WT_CONDVAR *evict_cond</text>
<polyline fill="none" stroke="black" points="16,-132 222,-132"/>
<text text-anchor="middle" x="119" y="-116.8" font-family="Times,serif" font-size="14.00">WT_SPINLOCK evict_walk_lock</text>
<polyline fill="none" stroke="black" points="16,-109 222,-109"/>
<text text-anchor="middle" x="119" y="-93.8" font-family="Times,serif" font-size="14.00">double eviction_dirty_target</text>
<polyline fill="none" stroke="black" points="16,-86 222,-86"/>
<text text-anchor="middle" x="119" y="-70.8" font-family="Times,serif" font-size="14.00">double eviction_dirty_trigger</text>
<polyline fill="none" stroke="black" points="16,-63 222,-63"/>
<text text-anchor="middle" x="119" y="-47.8" font-family="Times,serif" font-size="14.00">double eviction_trigger</text>
<polyline fill="none" stroke="black" points="16,-40 222,-40"/>
<text text-anchor="middle" x="119" y="-24.8" font-family="Times,serif" font-size="14.00">double eviction_target</text>
</g>
</g>
</svg>
