<?xml version="1.0" encoding="UTF-8" standalone="no"?>
<!DOCTYPE svg PUBLIC "-//W3C//DTD SVG 1.1//EN"
 "http://www.w3.org/Graphics/SVG/1.1/DTD/svg11.dtd">
<!-- Generated by graphviz version 7.0.4 (20221203.1631)
 -->
<!-- Pages: 1 -->
<svg width="512pt" height="524pt"
 viewBox="0.00 0.00 512.00 524.00" xmlns="http://www.w3.org/2000/svg" xmlns:xlink="http://www.w3.org/1999/xlink">
<g id="graph0" class="graph" transform="scale(1 1) rotate(0) translate(4 520)">
<polygon fill="white" stroke="none" points="-4,4 -4,-520 508,-520 508,4 -4,4"/>
<g id="clust1" class="cluster">
<title>cluster_data_hanle</title>
<polygon fill="none" stroke="black" points="8,-8 8,-508 496,-508 496,-8 8,-8"/>
</g>
<!-- wt_data_handle -->
<g id="node1" class="node">
<title>wt_data_handle</title>
<polygon fill="none" stroke="black" points="16,-16.5 16,-499.5 488,-499.5 488,-16.5 16,-16.5"/>
<text text-anchor="middle" x="252" y="-484.3" font-family="Times,serif" font-size="14.00">WT_DATA_HANDLE</text>
<polyline fill="none" stroke="black" points="16,-476.5 488,-476.5"/>
<text text-anchor="middle" x="252" y="-461.3" font-family="Times,serif" font-size="14.00">WT_RWLOCK rwlock</text>
<polyline fill="none" stroke="black" points="16,-453.5 488,-453.5"/>
<text text-anchor="middle" x="252" y="-438.3" font-family="Times,serif" font-size="14.00">TAILQ_ENTRY(__wt_data_handle) q</text>
<polyline fill="none" stroke="black" points="16,-430.5 488,-430.5"/>
<text text-anchor="middle" x="252" y="-415.3" font-family="Times,serif" font-size="14.00">TAILQ_ENTRY(__wt_data_handle) hashq</text>
<polyline fill="none" stroke="black" points="16,-407.5 488,-407.5"/>
<text text-anchor="middle" x="252" y="-392.3" font-family="Times,serif" font-size="14.00">const char *name</text>
<polyline fill="none" stroke="black" points="16,-384.5 488,-384.5"/>
<text text-anchor="middle" x="252" y="-369.3" font-family="Times,serif" font-size="14.00">uint64_t name_hash</text>
<polyline fill="none" stroke="black" points="16,-361.5 488,-361.5"/>
<text text-anchor="middle" x="252" y="-346.3" font-family="Times,serif" font-size="14.00">const char *checkpoint</text>
<polyline fill="none" stroke="black" points="16,-338.5 488,-338.5"/>
<text text-anchor="middle" x="252" y="-323.3" font-family="Times,serif" font-size="14.00">const char **cfg</text>
<polyline fill="none" stroke="black" points="16,-315.5 488,-315.5"/>
<text text-anchor="middle" x="252" y="-300.3" font-family="Times,serif" font-size="14.00">uint32_t session_ref</text>
<polyline fill="none" stroke="black" points="16,-292.5 488,-292.5"/>
<text text-anchor="middle" x="252" y="-277.3" font-family="Times,serif" font-size="14.00">int32_t session_inuse</text>
<polyline fill="none" stroke="black" points="16,-269.5 488,-269.5"/>
<text text-anchor="middle" x="252" y="-254.3" font-family="Times,serif" font-size="14.00">uint32_t excl_ref</text>
<polyline fill="none" stroke="black" points="16,-246.5 488,-246.5"/>
<text text-anchor="middle" x="252" y="-231.3" font-family="Times,serif" font-size="14.00">time_t timeofdeath</text>
<polyline fill="none" stroke="black" points="16,-223.5 488,-223.5"/>
<text text-anchor="middle" x="252" y="-208.3" font-family="Times,serif" font-size="14.00">WT_SESSION_IMPL *excl_session</text>
<polyline fill="none" stroke="black" points="16,-200.5 488,-200.5"/>
<text text-anchor="middle" x="252" y="-185.3" font-family="Times,serif" font-size="14.00">WT_DATA_SOURCE *dsrc</text>
<polyline fill="none" stroke="black" points="16,-177.5 488,-177.5"/>
<text text-anchor="middle" x="252" y="-162.3" font-family="Times,serif" font-size="14.00">void *handle</text>
<polyline fill="none" stroke="black" points="16,-154.5 488,-154.5"/>
<text text-anchor="middle" x="252" y="-139.3" font-family="Times,serif" font-size="14.00">enum { WT_DHANDLE_TYPE_BTREE, WT_DHANDLE_TYPE_TABLE } type</text>
<polyline fill="none" stroke="black" points="16,-131.5 488,-131.5"/>
<text text-anchor="middle" x="252" y="-116.3" font-family="Times,serif" font-size="14.00">bool compact_skip</text>
<polyline fill="none" stroke="black" points="16,-108.5 488,-108.5"/>
<text text-anchor="middle" x="252" y="-93.3" font-family="Times,serif" font-size="14.00">WT_SPINLOCK close_lock</text>
<polyline fill="none" stroke="black" points="16,-85.5 488,-85.5"/>
<text text-anchor="middle" x="252" y="-70.3" font-family="Times,serif" font-size="14.00">WT_DSRC_STATS *stats[WT_COUNTER_SLOTS]</text>
<polyline fill="none" stroke="black" points="16,-62.5 488,-62.5"/>
<text text-anchor="middle" x="252" y="-47.3" font-family="Times,serif" font-size="14.00">WT_DSRC_STATS *stat_array</text>
<polyline fill="none" stroke="black" points="16,-39.5 488,-39.5"/>
<text text-anchor="middle" x="252" y="-24.3" font-family="Times,serif" font-size="14.00">uint32_t flags</text>
</g>
</g>
</svg>
