<?xml version="1.0" encoding="UTF-8" standalone="no"?>
<!DOCTYPE svg PUBLIC "-//W3C//DTD SVG 1.1//EN"
 "http://www.w3.org/Graphics/SVG/1.1/DTD/svg11.dtd">
<!-- Generated by graphviz version 7.0.4 (20221203.1631)
 -->
<!-- Pages: 1 -->
<svg width="2775pt" height="690pt"
 viewBox="0.00 0.00 2775.00 690.00" xmlns="http://www.w3.org/2000/svg" xmlns:xlink="http://www.w3.org/1999/xlink">
<g id="graph0" class="graph" transform="scale(1 1) rotate(0) translate(4 686)">
<polygon fill="white" stroke="none" points="-4,4 -4,-686 2771,-686 2771,4 -4,4"/>
<g id="clust1" class="cluster">
<title>cluster_evict</title>
<polygon fill="none" stroke="black" points="8,-235 8,-674 2759,-674 2759,-235 8,-235"/>
</g>
<g id="clust2" class="cluster">
<title>cluster_evict_flow</title>
<polygon fill="none" stroke="black" points="287,-8 287,-227 2623,-227 2623,-8 287,-8"/>
</g>
<!-- __wt_evict_create -->
<g id="node1" class="node">
<title>__wt_evict_create</title>
<polygon fill="none" stroke="black" points="67,-514 67,-550 183,-550 183,-514 67,-514"/>
<text text-anchor="middle" x="125" y="-528.3" font-family="Times,serif" font-size="14.00">__wt_evict_create</text>
</g>
<!-- __wt_thread_group_create -->
<g id="node2" class="node">
<title>__wt_thread_group_create</title>
<polygon fill="none" stroke="black" points="270,-514 270,-550 431,-550 431,-514 270,-514"/>
<text text-anchor="middle" x="350.5" y="-528.3" font-family="Times,serif" font-size="14.00">__wt_thread_group_create</text>
</g>
<!-- __wt_evict_create&#45;&gt;__wt_thread_group_create -->
<g id="edge1" class="edge">
<title>__wt_evict_create&#45;&gt;__wt_thread_group_create</title>
<path fill="none" stroke="black" d="M182.98,-532C206.07,-532 233.31,-532 259,-532"/>
<polygon fill="black" stroke="black" points="258.77,-535.5 268.77,-532 258.77,-528.5 258.77,-535.5"/>
</g>
<!-- __wt_evict_thread_chk -->
<g id="node3" class="node">
<title>__wt_evict_thread_chk</title>
<polygon fill="none" stroke="black" points="509,-459 509,-495 652,-495 652,-459 509,-459"/>
<text text-anchor="middle" x="580.5" y="-473.3" font-family="Times,serif" font-size="14.00">__wt_evict_thread_chk</text>
</g>
<!-- __wt_thread_group_create&#45;&gt;__wt_evict_thread_chk -->
<g id="edge2" class="edge">
<title>__wt_thread_group_create&#45;&gt;__wt_evict_thread_chk</title>
<path fill="none" stroke="black" d="M425.84,-514.07C448.95,-508.49 474.54,-502.32 498.11,-496.63"/>
<polygon fill="black" stroke="black" points="498.76,-500.08 507.66,-494.33 497.12,-493.27 498.76,-500.08"/>
</g>
<!-- __wt_evict_thread_run -->
<g id="node4" class="node">
<title>__wt_evict_thread_run</title>
<polygon fill="none" stroke="black" points="509.5,-514 509.5,-550 651.5,-550 651.5,-514 509.5,-514"/>
<text text-anchor="middle" x="580.5" y="-528.3" font-family="Times,serif" font-size="14.00">__wt_evict_thread_run</text>
</g>
<!-- __wt_thread_group_create&#45;&gt;__wt_evict_thread_run -->
<g id="edge3" class="edge">
<title>__wt_thread_group_create&#45;&gt;__wt_evict_thread_run</title>
<path fill="none" stroke="black" d="M430.92,-532C452.81,-532 476.58,-532 498.55,-532"/>
<polygon fill="black" stroke="black" points="498.34,-535.5 508.34,-532 498.34,-528.5 498.34,-535.5"/>
</g>
<!-- __wt_evict_thread_stop -->
<g id="node9" class="node">
<title>__wt_evict_thread_stop</title>
<polygon fill="none" stroke="black" points="507.5,-569 507.5,-605 653.5,-605 653.5,-569 507.5,-569"/>
<text text-anchor="middle" x="580.5" y="-583.3" font-family="Times,serif" font-size="14.00">__wt_evict_thread_stop</text>
</g>
<!-- __wt_thread_group_create&#45;&gt;__wt_evict_thread_stop -->
<g id="edge4" class="edge">
<title>__wt_thread_group_create&#45;&gt;__wt_evict_thread_stop</title>
<path fill="none" stroke="black" d="M425.43,-549.95C439.25,-553.3 453.56,-556.76 467,-560 476.68,-562.33 486.83,-564.78 496.9,-567.2"/>
<polygon fill="black" stroke="black" points="495.76,-570.53 506.31,-569.46 497.4,-563.72 495.76,-570.53"/>
</g>
<!-- __evict_lru_pages -->
<g id="node5" class="node">
<title>__evict_lru_pages</title>
<polygon fill="none" stroke="black" points="730,-514 730,-550 1053,-550 1053,-514 730,-514"/>
<text text-anchor="middle" x="891.5" y="-528.3" font-family="Times,serif" font-size="14.00">__evict_lru_pages/*从LRU queue中找到page做evict*/</text>
</g>
<!-- __wt_evict_thread_run&#45;&gt;__evict_lru_pages -->
<g id="edge5" class="edge">
<title>__wt_evict_thread_run&#45;&gt;__evict_lru_pages</title>
<path fill="none" stroke="black" d="M651.23,-532C671.67,-532 694.97,-532 718.83,-532"/>
<polygon fill="black" stroke="black" points="718.68,-535.5 728.68,-532 718.68,-528.5 718.68,-535.5"/>
</g>
<!-- __evict_page -->
<g id="node6" class="node">
<title>__evict_page</title>
<polygon fill="none" stroke="black" points="1260.5,-514 1260.5,-550 1349.5,-550 1349.5,-514 1260.5,-514"/>
<text text-anchor="middle" x="1305" y="-528.3" font-family="Times,serif" font-size="14.00">__evict_page</text>
</g>
<!-- __evict_lru_pages&#45;&gt;__evict_page -->
<g id="edge6" class="edge">
<title>__evict_lru_pages&#45;&gt;__evict_page</title>
<path fill="none" stroke="black" d="M1052.77,-532C1122.49,-532 1199.54,-532 1249.69,-532"/>
<polygon fill="black" stroke="black" points="1249.39,-535.5 1259.39,-532 1249.39,-528.5 1249.39,-535.5"/>
</g>
<!-- __evict_get_ref -->
<g id="node7" class="node">
<title>__evict_get_ref</title>
<polygon fill="none" stroke="black" points="1687.5,-327 1687.5,-363 1788.5,-363 1788.5,-327 1687.5,-327"/>
<text text-anchor="middle" x="1738" y="-341.3" font-family="Times,serif" font-size="14.00">__evict_get_ref</text>
</g>
<!-- __evict_page&#45;&gt;__evict_get_ref -->
<g id="edge7" class="edge">
<title>__evict_page&#45;&gt;__evict_get_ref</title>
<path fill="none" stroke="black" d="M1347.33,-514.07C1426.41,-479.76 1598.96,-404.89 1685.44,-367.37"/>
<polygon fill="black" stroke="black" points="1686.63,-370.67 1694.41,-363.48 1683.84,-364.25 1686.63,-370.67"/>
</g>
<!-- __wt_evict -->
<g id="node8" class="node">
<title>__wt_evict</title>
<polygon fill="none" stroke="black" points="1699.5,-516 1699.5,-552 1776.5,-552 1776.5,-516 1699.5,-516"/>
<text text-anchor="middle" x="1738" y="-530.3" font-family="Times,serif" font-size="14.00">__wt_evict</text>
</g>
<!-- __evict_page&#45;&gt;__wt_evict -->
<g id="edge9" class="edge">
<title>__evict_page&#45;&gt;__wt_evict</title>
<path fill="none" stroke="black" d="M1349.3,-532.2C1430.14,-532.58 1603.49,-533.38 1688.28,-533.77"/>
<polygon fill="black" stroke="black" points="1688.1,-537.27 1698.12,-533.82 1688.14,-530.27 1688.1,-537.27"/>
</g>
<!-- __evict_queue_empty -->
<g id="node18" class="node">
<title>__evict_queue_empty</title>
<polygon fill="none" stroke="black" points="2216.5,-299 2216.5,-335 2353.5,-335 2353.5,-299 2216.5,-299"/>
<text text-anchor="middle" x="2285" y="-313.3" font-family="Times,serif" font-size="14.00">__evict_queue_empty</text>
</g>
<!-- __evict_get_ref&#45;&gt;__evict_queue_empty -->
<g id="edge16" class="edge">
<title>__evict_get_ref&#45;&gt;__evict_queue_empty</title>
<path fill="none" stroke="black" d="M1788.33,-342.47C1883.07,-337.6 2091.21,-326.9 2205.32,-321.04"/>
<polygon fill="black" stroke="black" points="2205.42,-324.54 2215.23,-320.53 2205.06,-317.55 2205.42,-324.54"/>
</g>
<!-- __evict_queue_full -->
<g id="node19" class="node">
<title>__evict_queue_full</title>
<polygon fill="none" stroke="black" points="2224.5,-354 2224.5,-390 2345.5,-390 2345.5,-354 2224.5,-354"/>
<text text-anchor="middle" x="2285" y="-368.3" font-family="Times,serif" font-size="14.00">__evict_queue_full</text>
</g>
<!-- __evict_get_ref&#45;&gt;__evict_queue_full -->
<g id="edge17" class="edge">
<title>__evict_get_ref&#45;&gt;__evict_queue_full</title>
<path fill="none" stroke="black" d="M1788.33,-347.44C1885.35,-352.25 2101.29,-362.95 2213.4,-368.5"/>
<polygon fill="black" stroke="black" points="2212.9,-371.98 2223.06,-368.98 2213.24,-364.99 2212.9,-371.98"/>
</g>
<!-- __evict_list_clear -->
<g id="node20" class="node">
<title>__evict_list_clear</title>
<polygon fill="none" stroke="black" points="2235.5,-244 2235.5,-280 2334.5,-280 2334.5,-244 2235.5,-244"/>
<text text-anchor="middle" x="2285" y="-258.3" font-family="Times,serif" font-size="14.00">清空evict&#45;&gt;ref</text>
</g>
<!-- __evict_get_ref&#45;&gt;__evict_list_clear -->
<g id="edge18" class="edge">
<title>__evict_get_ref&#45;&gt;__evict_list_clear</title>
<path fill="none" stroke="black" d="M1788.26,-329.99C1831.73,-317.34 1897,-299.78 1955,-290 2048.32,-274.26 2158.1,-267.18 2224.3,-264.13"/>
<polygon fill="black" stroke="black" points="2224.39,-267.63 2234.23,-263.69 2224.08,-260.64 2224.39,-267.63"/>
</g>
<!-- __wt_evict_list_clear_page -->
<g id="node13" class="node">
<title>__wt_evict_list_clear_page</title>
<polygon fill="none" stroke="black" points="2202.5,-519 2202.5,-555 2367.5,-555 2367.5,-519 2202.5,-519"/>
<text text-anchor="middle" x="2285" y="-533.3" font-family="Times,serif" font-size="14.00">__wt_evict_list_clear_page</text>
</g>
<!-- __wt_evict&#45;&gt;__wt_evict_list_clear_page -->
<g id="edge10" class="edge">
<title>__wt_evict&#45;&gt;__wt_evict_list_clear_page</title>
<path fill="none" stroke="black" d="M1776.46,-534.21C1861.15,-534.67 2069.43,-535.82 2191.23,-536.49"/>
<polygon fill="black" stroke="black" points="2191.21,-539.99 2201.23,-536.54 2191.25,-532.99 2191.21,-539.99"/>
</g>
<!-- __evict_page_dirty_update -->
<g id="node14" class="node">
<title>__evict_page_dirty_update</title>
<polygon fill="none" stroke="black" points="2203,-574 2203,-610 2367,-610 2367,-574 2203,-574"/>
<text text-anchor="middle" x="2285" y="-588.3" font-family="Times,serif" font-size="14.00">__evict_page_dirty_update</text>
</g>
<!-- __wt_evict&#45;&gt;__evict_page_dirty_update -->
<g id="edge14" class="edge">
<title>__wt_evict&#45;&gt;__evict_page_dirty_update</title>
<path fill="none" stroke="black" d="M1776.37,-540.07C1819.37,-546.88 1892.13,-557.92 1955,-565 2034.81,-573.99 2125.83,-581.23 2191.88,-585.94"/>
<polygon fill="black" stroke="black" points="2191.35,-589.41 2201.57,-586.63 2191.84,-582.43 2191.35,-589.41"/>
</g>
<!-- __evict_page_clean_update -->
<g id="node15" class="node">
<title>__evict_page_clean_update</title>
<polygon fill="none" stroke="black" points="2201.5,-629 2201.5,-665 2368.5,-665 2368.5,-629 2201.5,-629"/>
<text text-anchor="middle" x="2285" y="-643.3" font-family="Times,serif" font-size="14.00">__evict_page_clean_update</text>
</g>
<!-- __wt_evict&#45;&gt;__evict_page_clean_update -->
<g id="edge15" class="edge">
<title>__wt_evict&#45;&gt;__evict_page_clean_update</title>
<path fill="none" stroke="black" d="M1774.25,-551.83C1816.16,-572.12 1888.79,-604.47 1955,-620 2033.06,-638.31 2124.06,-644.67 2190.55,-646.67"/>
<polygon fill="black" stroke="black" points="2190.23,-650.17 2200.32,-646.94 2190.42,-643.17 2190.23,-650.17"/>
</g>
<!-- __evict_review -->
<g id="node16" class="node">
<title>__evict_review</title>
<polygon fill="none" stroke="black" points="2235,-409 2235,-445 2335,-445 2335,-409 2235,-409"/>
<text text-anchor="middle" x="2285" y="-423.3" font-family="Times,serif" font-size="14.00">__evict_review</text>
</g>
<!-- __wt_evict&#45;&gt;__evict_review -->
<g id="edge12" class="edge">
<title>__wt_evict&#45;&gt;__evict_review</title>
<path fill="none" stroke="black" d="M1776.32,-516.88C1818.67,-498.29 1890.28,-469.32 1955,-455 2047.27,-434.58 2157.13,-428.85 2223.67,-427.36"/>
<polygon fill="black" stroke="black" points="2223.73,-430.86 2233.66,-427.16 2223.59,-423.86 2223.73,-430.86"/>
</g>
<!-- __wt_list_clear_page -->
<g id="node21" class="node">
<title>__wt_list_clear_page</title>
<polygon fill="none" stroke="black" points="2219,-464 2219,-500 2351,-500 2351,-464 2219,-464"/>
<text text-anchor="middle" x="2285" y="-478.3" font-family="Times,serif" font-size="14.00">__wt_list_clear_page</text>
</g>
<!-- __wt_evict&#45;&gt;__wt_list_clear_page -->
<g id="edge11" class="edge">
<title>__wt_evict&#45;&gt;__wt_list_clear_page</title>
<path fill="none" stroke="black" d="M1776.43,-529.55C1819.48,-524.49 1892.29,-516.15 1955,-510 2041.56,-501.51 2141.08,-493.25 2207.79,-487.93"/>
<polygon fill="black" stroke="black" points="2207.83,-491.43 2217.52,-487.15 2207.28,-484.46 2207.83,-491.43"/>
</g>
<!-- __wt_evict_queue -->
<g id="node10" class="node">
<title>__wt_evict_queue</title>
<polygon fill="none" stroke="black" points="16,-328.5 16,-489.5 234,-489.5 234,-328.5 16,-328.5"/>
<text text-anchor="middle" x="125" y="-474.3" font-family="Times,serif" font-size="14.00">WT_EVICT_QUEUE</text>
<polyline fill="none" stroke="black" points="16,-466.5 234,-466.5"/>
<text text-anchor="middle" x="125" y="-451.3" font-family="Times,serif" font-size="14.00">WT_SPINLOCK evict_lock</text>
<polyline fill="none" stroke="black" points="16,-443.5 234,-443.5"/>
<text text-anchor="middle" x="125" y="-428.3" font-family="Times,serif" font-size="14.00">WT_EVICT_ENTRY *evict_queue</text>
<polyline fill="none" stroke="black" points="16,-420.5 234,-420.5"/>
<text text-anchor="middle" x="125" y="-405.3" font-family="Times,serif" font-size="14.00">WT_EVICT_ENTRY *evict_current</text>
<polyline fill="none" stroke="black" points="16,-397.5 234,-397.5"/>
<text text-anchor="middle" x="125" y="-382.3" font-family="Times,serif" font-size="14.00">uint32_t evict_candidates</text>
<polyline fill="none" stroke="black" points="16,-374.5 234,-374.5"/>
<text text-anchor="middle" x="125" y="-359.3" font-family="Times,serif" font-size="14.00">uint32_t evict_entries</text>
<polyline fill="none" stroke="black" points="16,-351.5 234,-351.5"/>
<text text-anchor="middle" x="125" y="-336.3" font-family="Times,serif" font-size="14.00">volatile uint32_t evict_max</text>
</g>
<!-- __wt_evict_entry -->
<g id="node11" class="node">
<title>__wt_evict_entry</title>
<polygon fill="none" stroke="black" points="282,-363 282,-455 419,-455 419,-363 282,-363"/>
<text text-anchor="middle" x="350.5" y="-439.8" font-family="Times,serif" font-size="14.00">WT_EVICT_ENTRY</text>
<polyline fill="none" stroke="black" points="282,-432 419,-432"/>
<text text-anchor="middle" x="350.5" y="-416.8" font-family="Times,serif" font-size="14.00">WT_BTREE *btree</text>
<polyline fill="none" stroke="black" points="282,-409 419,-409"/>
<text text-anchor="middle" x="350.5" y="-393.8" font-family="Times,serif" font-size="14.00">WT_REF *ref</text>
<polyline fill="none" stroke="black" points="282,-386 419,-386"/>
<text text-anchor="middle" x="350.5" y="-370.8" font-family="Times,serif" font-size="14.00">uint64_t score</text>
</g>
<!-- __wt_evict_queue&#45;&gt;__wt_evict_entry -->
<g id="edge8" class="edge">
<title>__wt_evict_queue:evict_entry&#45;&gt;__wt_evict_entry</title>
<path fill="none" stroke="black" d="M234,-409C245.9,-409 258.49,-409 270.8,-409"/>
<polygon fill="black" stroke="black" points="270.5,-412.5 280.5,-409 270.5,-405.5 270.5,-412.5"/>
</g>
<!-- __evict_exclusive -->
<g id="node12" class="node">
<title>__evict_exclusive</title>
<polygon fill="none" stroke="black" points="68,-263 68,-299 182,-299 182,-263 68,-263"/>
<text text-anchor="middle" x="125" y="-277.3" font-family="Times,serif" font-size="14.00">__evict_exclusive</text>
</g>
<!-- __wt_reconcile -->
<g id="node17" class="node">
<title>__wt_reconcile</title>
<polygon fill="none" stroke="black" points="2651,-409 2651,-445 2751,-445 2751,-409 2651,-409"/>
<text text-anchor="middle" x="2701" y="-423.3" font-family="Times,serif" font-size="14.00">__wt_reconcile</text>
</g>
<!-- __evict_review&#45;&gt;__wt_reconcile -->
<g id="edge13" class="edge">
<title>__evict_review&#45;&gt;__wt_reconcile</title>
<path fill="none" stroke="black" d="M2334.71,-427C2410.67,-427 2557.19,-427 2639.71,-427"/>
<polygon fill="black" stroke="black" points="2639.64,-430.5 2649.64,-427 2639.64,-423.5 2639.64,-430.5"/>
</g>
<!-- __evict_walk_tree -->
<g id="node22" class="node">
<title>__evict_walk_tree</title>
<polygon fill="none" stroke="black" points="833.5,-99 833.5,-135 949.5,-135 949.5,-99 833.5,-99"/>
<text text-anchor="middle" x="891.5" y="-113.3" font-family="Times,serif" font-size="14.00">__evict_walk_tree</text>
</g>
<!-- __evict_walk_target -->
<g id="node23" class="node">
<title>__evict_walk_target</title>
<polygon fill="none" stroke="black" points="1089,-17 1089,-53 1521,-53 1521,-17 1089,-17"/>
<text text-anchor="middle" x="1305" y="-31.3" font-family="Times,serif" font-size="14.00">__evict_walk_target/*Calculate how many pages to queue for a given tree*/</text>
</g>
<!-- __evict_walk_tree&#45;&gt;__evict_walk_target -->
<g id="edge25" class="edge">
<title>__evict_walk_tree&#45;&gt;__evict_walk_target</title>
<path fill="none" stroke="black" d="M948.29,-99C987.33,-87 1040.9,-71.7 1089,-62 1102.09,-59.36 1115.69,-56.93 1129.4,-54.71"/>
<polygon fill="black" stroke="black" points="1129.59,-58.23 1138.92,-53.21 1128.5,-51.31 1129.59,-58.23"/>
</g>
<!-- __wt_random_descent -->
<g id="node24" class="node">
<title>__wt_random_descent</title>
<polygon fill="none" stroke="black" points="1235,-72 1235,-108 1375,-108 1375,-72 1235,-72"/>
<text text-anchor="middle" x="1305" y="-86.3" font-family="Times,serif" font-size="14.00">__wt_random_descent</text>
</g>
<!-- __evict_walk_tree&#45;&gt;__wt_random_descent -->
<g id="edge26" class="edge">
<title>__evict_walk_tree&#45;&gt;__wt_random_descent</title>
<path fill="none" stroke="black" d="M949.29,-113.27C1020.56,-108.6 1143.26,-100.55 1224.01,-95.25"/>
<polygon fill="black" stroke="black" points="1223.86,-98.77 1233.61,-94.62 1223.4,-91.78 1223.86,-98.77"/>
</g>
<!-- __wt_tree_walk_count -->
<g id="node25" class="node">
<title>__wt_tree_walk_count</title>
<polygon fill="none" stroke="black" points="1235,-127 1235,-163 1375,-163 1375,-127 1235,-127"/>
<text text-anchor="middle" x="1305" y="-141.3" font-family="Times,serif" font-size="14.00">__wt_tree_walk_count</text>
</g>
<!-- __evict_walk_tree&#45;&gt;__wt_tree_walk_count -->
<g id="edge27" class="edge">
<title>__evict_walk_tree&#45;&gt;__wt_tree_walk_count</title>
<path fill="none" stroke="black" d="M949.29,-120.86C1020.56,-125.71 1143.26,-134.06 1224.01,-139.56"/>
<polygon fill="black" stroke="black" points="1223.39,-143.02 1233.61,-140.21 1223.87,-136.04 1223.39,-143.02"/>
</g>
<!-- __wt_page_evict_urgent -->
<g id="node26" class="node">
<title>__wt_page_evict_urgent</title>
<polygon fill="none" stroke="black" points="1230,-182 1230,-218 1380,-218 1380,-182 1230,-182"/>
<text text-anchor="middle" x="1305" y="-196.3" font-family="Times,serif" font-size="14.00">__wt_page_evict_urgent</text>
</g>
<!-- __evict_walk_tree&#45;&gt;__wt_page_evict_urgent -->
<g id="edge28" class="edge">
<title>__evict_walk_tree&#45;&gt;__wt_page_evict_urgent</title>
<path fill="none" stroke="black" d="M948.3,-134.93C987.35,-146.9 1040.93,-162.19 1089,-172 1131.56,-180.68 1179.43,-187.22 1219.17,-191.79"/>
<polygon fill="black" stroke="black" points="1218.59,-195.25 1228.92,-192.89 1219.38,-188.29 1218.59,-195.25"/>
</g>
<!-- __tree_walk_internal -->
<g id="node29" class="node">
<title>__tree_walk_internal</title>
<polygon fill="none" stroke="black" points="1635.5,-127 1635.5,-163 1840.5,-163 1840.5,-127 1635.5,-127"/>
<text text-anchor="middle" x="1738" y="-141.3" font-family="Times,serif" font-size="14.00">__tree_walk_internal /*遍历tree*/</text>
</g>
<!-- __wt_tree_walk_count&#45;&gt;__tree_walk_internal -->
<g id="edge29" class="edge">
<title>__wt_tree_walk_count&#45;&gt;__tree_walk_internal</title>
<path fill="none" stroke="black" d="M1374.77,-145C1441.82,-145 1544.96,-145 1624.06,-145"/>
<polygon fill="black" stroke="black" points="1624.04,-148.5 1634.04,-145 1624.04,-141.5 1624.04,-148.5"/>
</g>
<!-- __evict_push_candidate -->
<g id="node27" class="node">
<title>__evict_push_candidate</title>
<polygon fill="none" stroke="black" points="1557,-182 1557,-218 1919,-218 1919,-182 1557,-182"/>
<text text-anchor="middle" x="1738" y="-196.3" font-family="Times,serif" font-size="14.00">__evict_push_candidate /*设置evict的btree/ref/score等信息*/</text>
</g>
<!-- __wt_page_evict_urgent&#45;&gt;__evict_push_candidate -->
<g id="edge19" class="edge">
<title>__wt_page_evict_urgent&#45;&gt;__evict_push_candidate</title>
<path fill="none" stroke="black" d="M1379.6,-200C1425.57,-200 1487.04,-200 1546.02,-200"/>
<polygon fill="black" stroke="black" points="1545.88,-203.5 1555.88,-200 1545.88,-196.5 1545.88,-203.5"/>
</g>
<!-- __evict_push_candidate&#45;&gt;__evict_list_clear -->
<g id="edge21" class="edge">
<title>__evict_push_candidate&#45;&gt;__evict_list_clear</title>
<path fill="none" stroke="black" d="M1856.85,-217.97C1888.67,-222.53 1923.12,-227.21 1955,-231 2048.92,-242.16 2158.31,-251.8 2224.3,-257.25"/>
<polygon fill="black" stroke="black" points="2223.94,-260.73 2234.19,-258.06 2224.51,-253.76 2223.94,-260.73"/>
</g>
<!-- __evict_entry_priority -->
<g id="node28" class="node">
<title>__evict_entry_priority</title>
<polygon fill="none" stroke="black" points="1955,-182 1955,-218 2615,-218 2615,-182 1955,-182"/>
<text text-anchor="middle" x="2285" y="-196.3" font-family="Times,serif" font-size="14.00">__evict_entry_priority /* 设置page evict的priority, priority跟page的readgen/update_txn/memory_footprint有关系*/</text>
</g>
<!-- __evict_push_candidate&#45;&gt;__evict_entry_priority -->
<g id="edge20" class="edge">
<title>__evict_push_candidate&#45;&gt;__evict_entry_priority</title>
<path fill="none" stroke="black" d="M1918.96,-200C1927.26,-200 1935.69,-200 1944.22,-200"/>
<polygon fill="black" stroke="black" points="1943.96,-203.5 1953.96,-200 1943.96,-196.5 1943.96,-203.5"/>
</g>
<!-- __evict_lru_walk -->
<g id="node30" class="node">
<title>__evict_lru_walk</title>
<polygon fill="none" stroke="black" points="295,-126 295,-162 406,-162 406,-126 295,-126"/>
<text text-anchor="middle" x="350.5" y="-140.3" font-family="Times,serif" font-size="14.00">__evict_lru_walk</text>
</g>
<!-- __evict_walk -->
<g id="node31" class="node">
<title>__evict_walk</title>
<polygon fill="none" stroke="black" points="536,-99 536,-135 625,-135 625,-99 536,-99"/>
<text text-anchor="middle" x="580.5" y="-113.3" font-family="Times,serif" font-size="14.00">__evict_walk</text>
</g>
<!-- __evict_lru_walk&#45;&gt;__evict_walk -->
<g id="edge22" class="edge">
<title>__evict_lru_walk&#45;&gt;__evict_walk</title>
<path fill="none" stroke="black" d="M405.82,-137.57C441.83,-133.3 488.91,-127.73 524.97,-123.46"/>
<polygon fill="black" stroke="black" points="525.24,-126.95 534.75,-122.3 524.41,-120 525.24,-126.95"/>
</g>
<!-- __wt_qsort -->
<g id="node32" class="node">
<title>__wt_qsort</title>
<polygon fill="none" stroke="black" points="467,-154 467,-190 694,-190 694,-154 467,-154"/>
<text text-anchor="middle" x="580.5" y="-168.3" font-family="Times,serif" font-size="14.00">__wt_qsort/*按照score做升序排列*/</text>
</g>
<!-- __evict_lru_walk&#45;&gt;__wt_qsort -->
<g id="edge23" class="edge">
<title>__evict_lru_walk&#45;&gt;__wt_qsort</title>
<path fill="none" stroke="black" d="M405.82,-150.67C421.13,-152.55 438.44,-154.68 456.04,-156.84"/>
<polygon fill="black" stroke="black" points="455.48,-160.3 465.83,-158.04 456.34,-153.35 455.48,-160.3"/>
</g>
<!-- __evict_walk&#45;&gt;__evict_walk_tree -->
<g id="edge24" class="edge">
<title>__evict_walk&#45;&gt;__evict_walk_tree</title>
<path fill="none" stroke="black" d="M624.79,-117C676.05,-117 762.05,-117 822.29,-117"/>
<polygon fill="black" stroke="black" points="822.09,-120.5 832.09,-117 822.09,-113.5 822.09,-120.5"/>
</g>
</g>
</svg>
