<?xml version="1.0" encoding="UTF-8" standalone="no"?>
<!DOCTYPE svg PUBLIC "-//W3C//DTD SVG 1.1//EN"
 "http://www.w3.org/Graphics/SVG/1.1/DTD/svg11.dtd">
<!-- Generated by graphviz version 7.0.4 (20221203.1631)
 -->
<!-- Title: Page Pages: 1 -->
<svg width="1096pt" height="1422pt"
 viewBox="0.00 0.00 1096.00 1422.00" xmlns="http://www.w3.org/2000/svg" xmlns:xlink="http://www.w3.org/1999/xlink">
<g id="graph0" class="graph" transform="scale(1 1) rotate(0) translate(4 1418)">
<title>Page</title>
<polygon fill="white" stroke="none" points="-4,4 -4,-1418 1092,-1418 1092,4 -4,4"/>
<g id="clust1" class="cluster">
<title>cluster_PageHeader</title>
<polygon fill="none" stroke="black" points="95,-8 95,-140 317,-140 317,-8 95,-8"/>
</g>
<g id="clust2" class="cluster">
<title>cluster_Ref</title>
<polygon fill="none" stroke="black" points="82,-148 82,-529 1080,-529 1080,-148 82,-148"/>
<text text-anchor="middle" x="581" y="-513.8" font-family="Times,serif" font-size="14.00">wt_ref</text>
</g>
<g id="clust3" class="cluster">
<title>cluster_txn_global</title>
<polygon fill="none" stroke="black" points="8,-537 8,-1406 650.5,-1406 650.5,-537 8,-537"/>
<text text-anchor="middle" x="329.25" y="-1390.8" font-family="Times,serif" font-size="14.00">wt_txn_global</text>
</g>
<!-- header -->
<g id="node1" class="node">
<title>header</title>
<polygon fill="none" stroke="black" points="103,-16.5 103,-131.5 309,-131.5 309,-16.5 103,-16.5"/>
<text text-anchor="middle" x="206" y="-116.3" font-family="Times,serif" font-size="14.00">uint64_t recordno</text>
<polyline fill="none" stroke="black" points="103,-108.5 309,-108.5"/>
<text text-anchor="middle" x="206" y="-93.3" font-family="Times,serif" font-size="14.00">uint32_t mem_size</text>
<polyline fill="none" stroke="black" points="103,-85.5 309,-85.5"/>
<text text-anchor="middle" x="206" y="-70.3" font-family="Times,serif" font-size="14.00">uint32_t entries | uint32_t data_len</text>
<polyline fill="none" stroke="black" points="103,-62.5 309,-62.5"/>
<text text-anchor="middle" x="206" y="-47.3" font-family="Times,serif" font-size="14.00">uint8_t type</text>
<polyline fill="none" stroke="black" points="103,-39.5 309,-39.5"/>
<text text-anchor="middle" x="206" y="-24.3" font-family="Times,serif" font-size="14.00">uint8_t unused[2]</text>
</g>
<!-- wt_ref -->
<g id="node2" class="node">
<title>wt_ref</title>
<polygon fill="none" stroke="black" points="90,-336.5 90,-497.5 322,-497.5 322,-336.5 90,-336.5"/>
<text text-anchor="middle" x="206" y="-482.3" font-family="Times,serif" font-size="14.00">WT_PAGE *page</text>
<polyline fill="none" stroke="black" points="90,-474.5 322,-474.5"/>
<text text-anchor="middle" x="206" y="-459.3" font-family="Times,serif" font-size="14.00">volatile uint32_t pindex_hint</text>
<polyline fill="none" stroke="black" points="90,-451.5 322,-451.5"/>
<text text-anchor="middle" x="206" y="-436.3" font-family="Times,serif" font-size="14.00">volatile uint32_t state</text>
<polyline fill="none" stroke="black" points="90,-428.5 322,-428.5"/>
<text text-anchor="middle" x="206" y="-413.3" font-family="Times,serif" font-size="14.00">void *addr</text>
<polyline fill="none" stroke="black" points="90,-405.5 322,-405.5"/>
<text text-anchor="middle" x="206" y="-390.3" font-family="Times,serif" font-size="14.00">union {uint64_t recno; void *ikey;}key</text>
<polyline fill="none" stroke="black" points="90,-382.5 322,-382.5"/>
<text text-anchor="middle" x="206" y="-367.3" font-family="Times,serif" font-size="14.00">WT_PAGE_DELETED *page_del</text>
<polyline fill="none" stroke="black" points="90,-359.5 322,-359.5"/>
<text text-anchor="middle" x="206" y="-344.3" font-family="Times,serif" font-size="14.00">WT_PAGE_LOOKASIDE *page_las</text>
</g>
<!-- wt_page_deleted -->
<g id="node5" class="node">
<title>wt_page_deleted</title>
<polygon fill="none" stroke="black" points="453.5,-382.5 453.5,-497.5 628.5,-497.5 628.5,-382.5 453.5,-382.5"/>
<text text-anchor="middle" x="541" y="-482.3" font-family="Times,serif" font-size="14.00">volatile uint64_t txnid</text>
<polyline fill="none" stroke="black" points="453.5,-474.5 628.5,-474.5"/>
<text text-anchor="middle" x="541" y="-459.3" font-family="Times,serif" font-size="14.00">wt_timestamp_t timestamp</text>
<polyline fill="none" stroke="black" points="453.5,-451.5 628.5,-451.5"/>
<text text-anchor="middle" x="541" y="-436.3" font-family="Times,serif" font-size="14.00">volatile uint8_t prepare_state</text>
<polyline fill="none" stroke="black" points="453.5,-428.5 628.5,-428.5"/>
<text text-anchor="middle" x="541" y="-413.3" font-family="Times,serif" font-size="14.00">uint32_t previous_state</text>
<polyline fill="none" stroke="black" points="453.5,-405.5 628.5,-405.5"/>
<text text-anchor="middle" x="541" y="-390.3" font-family="Times,serif" font-size="14.00">WT_UPDATE **update_list</text>
</g>
<!-- wt_ref&#45;&gt;wt_page_deleted -->
<g id="edge3" class="edge">
<title>wt_ref:delete&#45;&gt;wt_page_deleted:header</title>
<path fill="none" stroke="black" d="M323,-371C395.76,-371 377.51,-474.19 440.67,-485.07"/>
<polygon fill="black" stroke="black" points="440.24,-488.55 450.49,-485.88 440.81,-481.57 440.24,-488.55"/>
</g>
<!-- wt_page_lookaside -->
<g id="node6" class="node">
<title>wt_page_lookaside</title>
<polygon fill="none" stroke="black" points="432,-156.5 432,-363.5 650,-363.5 650,-156.5 432,-156.5"/>
<text text-anchor="middle" x="541" y="-348.3" font-family="Times,serif" font-size="14.00">uint64_t las_pageid</text>
<polyline fill="none" stroke="black" points="432,-340.5 650,-340.5"/>
<text text-anchor="middle" x="541" y="-325.3" font-family="Times,serif" font-size="14.00">uint64_t max_txn</text>
<polyline fill="none" stroke="black" points="432,-317.5 650,-317.5"/>
<text text-anchor="middle" x="541" y="-302.3" font-family="Times,serif" font-size="14.00">uint64_t unstable_txn</text>
<polyline fill="none" stroke="black" points="432,-294.5 650,-294.5"/>
<text text-anchor="middle" x="541" y="-279.3" font-family="Times,serif" font-size="14.00">wt_timestamp_t max_timestamp</text>
<polyline fill="none" stroke="black" points="432,-271.5 650,-271.5"/>
<text text-anchor="middle" x="541" y="-256.3" font-family="Times,serif" font-size="14.00">wt_timestamp_t unstable_timestamp</text>
<polyline fill="none" stroke="black" points="432,-248.5 650,-248.5"/>
<text text-anchor="middle" x="541" y="-233.3" font-family="Times,serif" font-size="14.00">bool eviction_to_lookaside</text>
<polyline fill="none" stroke="black" points="432,-225.5 650,-225.5"/>
<text text-anchor="middle" x="541" y="-210.3" font-family="Times,serif" font-size="14.00">bool has_prepares</text>
<polyline fill="none" stroke="black" points="432,-202.5 650,-202.5"/>
<text text-anchor="middle" x="541" y="-187.3" font-family="Times,serif" font-size="14.00">bool resolved</text>
<polyline fill="none" stroke="black" points="432,-179.5 650,-179.5"/>
<text text-anchor="middle" x="541" y="-164.3" font-family="Times,serif" font-size="14.00">bool skew_newest</text>
</g>
<!-- wt_ref&#45;&gt;wt_page_lookaside -->
<g id="edge4" class="edge">
<title>wt_ref:las&#45;&gt;wt_page_lookaside:header</title>
<path fill="none" stroke="black" d="M323,-348C367.41,-348 381.24,-351.36 420.51,-351.92"/>
<polygon fill="black" stroke="black" points="420.46,-355.42 430.49,-351.99 420.51,-348.42 420.46,-355.42"/>
</g>
<!-- wt_update -->
<g id="node3" class="node">
<title>wt_update</title>
<polygon fill="none" stroke="black" points="686,-244.5 686,-405.5 861,-405.5 861,-244.5 686,-244.5"/>
<text text-anchor="middle" x="773.5" y="-390.3" font-family="Times,serif" font-size="14.00">volatile uint64_t txnid</text>
<polyline fill="none" stroke="black" points="686,-382.5 861,-382.5"/>
<text text-anchor="middle" x="773.5" y="-367.3" font-family="Times,serif" font-size="14.00">wt_timestamp_t timestamp</text>
<polyline fill="none" stroke="black" points="686,-359.5 861,-359.5"/>
<text text-anchor="middle" x="773.5" y="-344.3" font-family="Times,serif" font-size="14.00">WT_UPDATE *next</text>
<polyline fill="none" stroke="black" points="686,-336.5 861,-336.5"/>
<text text-anchor="middle" x="773.5" y="-321.3" font-family="Times,serif" font-size="14.00">uint32_t size</text>
<polyline fill="none" stroke="black" points="686,-313.5 861,-313.5"/>
<text text-anchor="middle" x="773.5" y="-298.3" font-family="Times,serif" font-size="14.00">uint8_t type</text>
<polyline fill="none" stroke="black" points="686,-290.5 861,-290.5"/>
<text text-anchor="middle" x="773.5" y="-275.3" font-family="Times,serif" font-size="14.00">volatile uint8_t prepare_state</text>
<polyline fill="none" stroke="black" points="686,-267.5 861,-267.5"/>
<text text-anchor="middle" x="773.5" y="-252.3" font-family="Times,serif" font-size="14.00">uint8_t data[]</text>
</g>
<!-- wt_update2 -->
<g id="node4" class="node">
<title>wt_update2</title>
<polygon fill="none" stroke="black" points="897,-198.5 897,-359.5 1072,-359.5 1072,-198.5 897,-198.5"/>
<text text-anchor="middle" x="984.5" y="-344.3" font-family="Times,serif" font-size="14.00">volatile uint64_t txnid</text>
<polyline fill="none" stroke="black" points="897,-336.5 1072,-336.5"/>
<text text-anchor="middle" x="984.5" y="-321.3" font-family="Times,serif" font-size="14.00">wt_timestamp_t timestamp</text>
<polyline fill="none" stroke="black" points="897,-313.5 1072,-313.5"/>
<text text-anchor="middle" x="984.5" y="-298.3" font-family="Times,serif" font-size="14.00">WT_UPDATE *next</text>
<polyline fill="none" stroke="black" points="897,-290.5 1072,-290.5"/>
<text text-anchor="middle" x="984.5" y="-275.3" font-family="Times,serif" font-size="14.00">uint32_t size</text>
<polyline fill="none" stroke="black" points="897,-267.5 1072,-267.5"/>
<text text-anchor="middle" x="984.5" y="-252.3" font-family="Times,serif" font-size="14.00">uint8_t type</text>
<polyline fill="none" stroke="black" points="897,-244.5 1072,-244.5"/>
<text text-anchor="middle" x="984.5" y="-229.3" font-family="Times,serif" font-size="14.00">volatile uint8_t prepare_state</text>
<polyline fill="none" stroke="black" points="897,-221.5 1072,-221.5"/>
<text text-anchor="middle" x="984.5" y="-206.3" font-family="Times,serif" font-size="14.00">uint8_t data[]</text>
</g>
<!-- wt_update&#45;&gt;wt_update2 -->
<g id="edge1" class="edge">
<title>wt_update:next&#45;&gt;wt_update2:header</title>
<path fill="none" stroke="black" d="M861,-348C872.38,-348 877.68,-348 885.55,-348"/>
<polygon fill="black" stroke="black" points="885.49,-351.5 895.49,-348 885.49,-344.5 885.49,-351.5"/>
</g>
<!-- wt_page_deleted&#45;&gt;wt_update -->
<g id="edge2" class="edge">
<title>wt_page_deleted:update_list&#45;&gt;wt_update:header</title>
<path fill="none" stroke="black" d="M630,-394C650.61,-394 658.42,-394 674.63,-394"/>
<polygon fill="black" stroke="black" points="674.49,-397.5 684.49,-394 674.49,-390.5 674.49,-397.5"/>
</g>
<!-- wt_txn_global -->
<g id="node7" class="node">
<title>wt_txn_global</title>
<polygon fill="none" stroke="black" points="16,-546 16,-1374 396,-1374 396,-546 16,-546"/>
<text text-anchor="middle" x="206" y="-1358.8" font-family="Times,serif" font-size="14.00">volatile uint64_t current</text>
<polyline fill="none" stroke="black" points="16,-1351 396,-1351"/>
<text text-anchor="middle" x="206" y="-1335.8" font-family="Times,serif" font-size="14.00">volatile uint64_t last_running</text>
<polyline fill="none" stroke="black" points="16,-1328 396,-1328"/>
<text text-anchor="middle" x="206" y="-1312.8" font-family="Times,serif" font-size="14.00">volatile uint64_t oldest_id</text>
<polyline fill="none" stroke="black" points="16,-1305 396,-1305"/>
<text text-anchor="middle" x="206" y="-1289.8" font-family="Times,serif" font-size="14.00">wt_timestamp_t commit_timestamp</text>
<polyline fill="none" stroke="black" points="16,-1282 396,-1282"/>
<text text-anchor="middle" x="206" y="-1266.8" font-family="Times,serif" font-size="14.00">wt_timestamp_t last_ckpt_timestamp</text>
<polyline fill="none" stroke="black" points="16,-1259 396,-1259"/>
<text text-anchor="middle" x="206" y="-1243.8" font-family="Times,serif" font-size="14.00">wt_timestamp_t meta_ckpt_timestamp</text>
<polyline fill="none" stroke="black" points="16,-1236 396,-1236"/>
<text text-anchor="middle" x="206" y="-1220.8" font-family="Times,serif" font-size="14.00">wt_timestamp_t oldest_timestamp</text>
<polyline fill="none" stroke="black" points="16,-1213 396,-1213"/>
<text text-anchor="middle" x="206" y="-1197.8" font-family="Times,serif" font-size="14.00">wt_timestamp_t pinned_timestamp</text>
<polyline fill="none" stroke="black" points="16,-1190 396,-1190"/>
<text text-anchor="middle" x="206" y="-1174.8" font-family="Times,serif" font-size="14.00">wt_timestamp_t recovery_timestamp</text>
<polyline fill="none" stroke="black" points="16,-1167 396,-1167"/>
<text text-anchor="middle" x="206" y="-1151.8" font-family="Times,serif" font-size="14.00">wt_timestamp_t stable_timestamp</text>
<polyline fill="none" stroke="black" points="16,-1144 396,-1144"/>
<text text-anchor="middle" x="206" y="-1128.8" font-family="Times,serif" font-size="14.00">bool has_commit_timestamp</text>
<polyline fill="none" stroke="black" points="16,-1121 396,-1121"/>
<text text-anchor="middle" x="206" y="-1105.8" font-family="Times,serif" font-size="14.00">bool has_oldest_timestamp</text>
<polyline fill="none" stroke="black" points="16,-1098 396,-1098"/>
<text text-anchor="middle" x="206" y="-1082.8" font-family="Times,serif" font-size="14.00">bool has_pinned_timestamp</text>
<polyline fill="none" stroke="black" points="16,-1075 396,-1075"/>
<text text-anchor="middle" x="206" y="-1059.8" font-family="Times,serif" font-size="14.00">bool has_stable_timestamp</text>
<polyline fill="none" stroke="black" points="16,-1052 396,-1052"/>
<text text-anchor="middle" x="206" y="-1036.8" font-family="Times,serif" font-size="14.00">bool oldest_is_pinned</text>
<polyline fill="none" stroke="black" points="16,-1029 396,-1029"/>
<text text-anchor="middle" x="206" y="-1013.8" font-family="Times,serif" font-size="14.00">bool stable_is_pinned</text>
<polyline fill="none" stroke="black" points="16,-1006 396,-1006"/>
<text text-anchor="middle" x="206" y="-990.8" font-family="Times,serif" font-size="14.00">WT_SPINLOCK id_lock</text>
<polyline fill="none" stroke="black" points="16,-983 396,-983"/>
<text text-anchor="middle" x="206" y="-967.8" font-family="Times,serif" font-size="14.00">WT_RWLOCK rwlock</text>
<polyline fill="none" stroke="black" points="16,-960 396,-960"/>
<text text-anchor="middle" x="206" y="-944.8" font-family="Times,serif" font-size="14.00">WT_RWLOCK visibility_rwlock</text>
<polyline fill="none" stroke="black" points="16,-937 396,-937"/>
<text text-anchor="middle" x="206" y="-921.8" font-family="Times,serif" font-size="14.00">WT_RWLOCK commit_timestamp_rwlock</text>
<polyline fill="none" stroke="black" points="16,-914 396,-914"/>
<text text-anchor="middle" x="206" y="-898.8" font-family="Times,serif" font-size="14.00">TAILQ_HEAD(__wt_txn_cts_qh, __wt_txn) commit_timestamph</text>
<polyline fill="none" stroke="black" points="16,-891 396,-891"/>
<text text-anchor="middle" x="206" y="-875.8" font-family="Times,serif" font-size="14.00">uint32_t commit_timestampq_len</text>
<polyline fill="none" stroke="black" points="16,-868 396,-868"/>
<text text-anchor="middle" x="206" y="-852.8" font-family="Times,serif" font-size="14.00">WT_RWLOCK read_timestamp_rwlock</text>
<polyline fill="none" stroke="black" points="16,-845 396,-845"/>
<text text-anchor="middle" x="206" y="-829.8" font-family="Times,serif" font-size="14.00">TAILQ_HEAD(__wt_txn_rts_qh, __wt_txn) read_timestamph</text>
<polyline fill="none" stroke="black" points="16,-822 396,-822"/>
<text text-anchor="middle" x="206" y="-806.8" font-family="Times,serif" font-size="14.00">uint32_t read_timestampq_len</text>
<polyline fill="none" stroke="black" points="16,-799 396,-799"/>
<text text-anchor="middle" x="206" y="-783.8" font-family="Times,serif" font-size="14.00">volatile bool checkpoint_running</text>
<polyline fill="none" stroke="black" points="16,-776 396,-776"/>
<text text-anchor="middle" x="206" y="-760.8" font-family="Times,serif" font-size="14.00">volatile uint32_t checkpoint_id</text>
<polyline fill="none" stroke="black" points="16,-753 396,-753"/>
<text text-anchor="middle" x="206" y="-737.8" font-family="Times,serif" font-size="14.00">WT_TXN_STATE checkpoint_state</text>
<polyline fill="none" stroke="black" points="16,-730 396,-730"/>
<text text-anchor="middle" x="206" y="-714.8" font-family="Times,serif" font-size="14.00">wt_timestamp_t checkpoint_timestamp</text>
<polyline fill="none" stroke="black" points="16,-707 396,-707"/>
<text text-anchor="middle" x="206" y="-691.8" font-family="Times,serif" font-size="14.00">volatile uint64_t debug_ops</text>
<polyline fill="none" stroke="black" points="16,-684 396,-684"/>
<text text-anchor="middle" x="206" y="-668.8" font-family="Times,serif" font-size="14.00">uint64_t debug_rollback</text>
<polyline fill="none" stroke="black" points="16,-661 396,-661"/>
<text text-anchor="middle" x="206" y="-645.8" font-family="Times,serif" font-size="14.00">volatile uint64_t metadata_pinned</text>
<polyline fill="none" stroke="black" points="16,-638 396,-638"/>
<text text-anchor="middle" x="206" y="-622.8" font-family="Times,serif" font-size="14.00">WT_RWLOCK nsnap_rwlock</text>
<polyline fill="none" stroke="black" points="16,-615 396,-615"/>
<text text-anchor="middle" x="206" y="-599.8" font-family="Times,serif" font-size="14.00">volatile uint64_t nsnap_oldest_id</text>
<polyline fill="none" stroke="black" points="16,-592 396,-592"/>
<text text-anchor="middle" x="206" y="-576.8" font-family="Times,serif" font-size="14.00">TAILQ_HEAD(__wt_nsnap_qh, __wt_named_snapshot) nsnaph</text>
<polyline fill="none" stroke="black" points="16,-569 396,-569"/>
<text text-anchor="middle" x="206" y="-553.8" font-family="Times,serif" font-size="14.00">WT_TXN_STATE *states</text>
</g>
<!-- txn_state -->
<g id="node8" class="node">
<title>txn_state</title>
<polygon fill="none" stroke="black" points="439.5,-545.5 439.5,-614.5 642.5,-614.5 642.5,-545.5 439.5,-545.5"/>
<text text-anchor="middle" x="541" y="-599.3" font-family="Times,serif" font-size="14.00">volatile uint64_t id</text>
<polyline fill="none" stroke="black" points="439.5,-591.5 642.5,-591.5"/>
<text text-anchor="middle" x="541" y="-576.3" font-family="Times,serif" font-size="14.00">volatile uint64_t pinned_id</text>
<polyline fill="none" stroke="black" points="439.5,-568.5 642.5,-568.5"/>
<text text-anchor="middle" x="541" y="-553.3" font-family="Times,serif" font-size="14.00">volatile uint64_t metadata_pinned</text>
</g>
<!-- wt_txn_global&#45;&gt;txn_state -->
<g id="edge5" class="edge">
<title>wt_txn_global:txn_state&#45;&gt;txn_state:header</title>
<path fill="none" stroke="black" d="M396,-557C419.14,-557 413.6,-589.14 427.33,-599.69"/>
<polygon fill="black" stroke="black" points="425.97,-602.93 436.55,-602.55 428.04,-596.25 425.97,-602.93"/>
</g>
<!-- txn_state2 -->
<g id="node9" class="node">
<title>txn_state2</title>
<polygon fill="none" stroke="black" points="439.5,-683.5 439.5,-752.5 642.5,-752.5 642.5,-683.5 439.5,-683.5"/>
<text text-anchor="middle" x="541" y="-737.3" font-family="Times,serif" font-size="14.00">volatile uint64_t id</text>
<polyline fill="none" stroke="black" points="439.5,-729.5 642.5,-729.5"/>
<text text-anchor="middle" x="541" y="-714.3" font-family="Times,serif" font-size="14.00">volatile uint64_t pinned_id</text>
<polyline fill="none" stroke="black" points="439.5,-706.5 642.5,-706.5"/>
<text text-anchor="middle" x="541" y="-691.3" font-family="Times,serif" font-size="14.00">volatile uint64_t metadata_pinned</text>
</g>
<!-- wt_txn_global&#45;&gt;txn_state2 -->
<g id="edge6" class="edge">
<title>wt_txn_global:checkpoint_state&#45;&gt;txn_state2:header</title>
<path fill="none" stroke="black" d="M396,-741C410.15,-741 416.25,-741 426.5,-741"/>
<polygon fill="black" stroke="black" points="426.49,-744.5 436.49,-741 426.49,-737.5 426.49,-744.5"/>
</g>
</g>
</svg>
