<?xml version="1.0" encoding="UTF-8" standalone="no"?>
<!DOCTYPE svg PUBLIC "-//W3C//DTD SVG 1.1//EN"
 "http://www.w3.org/Graphics/SVG/1.1/DTD/svg11.dtd">
<!-- Generated by graphviz version 7.0.4 (20221203.1631)
 -->
<!-- Title: Page Pages: 1 -->
<svg width="979pt" height="955pt"
 viewBox="0.00 0.00 979.00 955.00" xmlns="http://www.w3.org/2000/svg" xmlns:xlink="http://www.w3.org/1999/xlink">
<g id="graph0" class="graph" transform="scale(1 1) rotate(0) translate(4 951)">
<title>Page</title>
<polygon fill="white" stroke="none" points="-4,4 -4,-951 975,-951 975,4 -4,4"/>
<g id="clust1" class="cluster">
<title>cluster_wt_ref</title>
<polygon fill="none" stroke="black" points="8,-8 8,-939 963,-939 963,-8 8,-8"/>
<text text-anchor="middle" x="485.5" y="-923.8" font-family="Times,serif" font-size="14.00">wt_ref</text>
</g>
<!-- wt_page -->
<g id="node1" class="node">
<title>wt_page</title>
<polygon fill="none" stroke="black" points="292,-376.5 292,-907.5 494,-907.5 494,-376.5 292,-376.5"/>
<text text-anchor="middle" x="393" y="-892.3" font-family="Times,serif" font-size="14.00">WT_PAGE</text>
<polyline fill="none" stroke="black" points="292,-884.5 494,-884.5"/>
<text text-anchor="middle" x="393" y="-869.3" font-family="Times,serif" font-size="14.00">union{</text>
<text text-anchor="middle" x="393" y="-854.3" font-family="Times,serif" font-size="14.00"> struct {</text>
<text text-anchor="middle" x="393" y="-839.3" font-family="Times,serif" font-size="14.00"> WT_REF *parent_ref;</text>
<text text-anchor="middle" x="393" y="-824.3" font-family="Times,serif" font-size="14.00"> uint64_t split_gen;</text>
<text text-anchor="middle" x="393" y="-809.3" font-family="Times,serif" font-size="14.00"> struct __wt_page_index {</text>
<text text-anchor="middle" x="393" y="-794.3" font-family="Times,serif" font-size="14.00"> uint32_t entries;</text>
<text text-anchor="middle" x="393" y="-779.3" font-family="Times,serif" font-size="14.00"> uint32_t deleted_entries;</text>
<text text-anchor="middle" x="393" y="-764.3" font-family="Times,serif" font-size="14.00"> WT_REF **index;</text>
<text text-anchor="middle" x="393" y="-749.3" font-family="Times,serif" font-size="14.00"> } * volatile __index;</text>
<text text-anchor="middle" x="393" y="-734.3" font-family="Times,serif" font-size="14.00"> } intl;</text>
<text text-anchor="middle" x="393" y="-719.3" font-family="Times,serif" font-size="14.00"> struct {</text>
<text text-anchor="middle" x="393" y="-704.3" font-family="Times,serif" font-size="14.00"> WT_COL *col_var</text>
<text text-anchor="middle" x="393" y="-689.3" font-family="Times,serif" font-size="14.00"> struct __wt_col_var_repeat {</text>
<text text-anchor="middle" x="393" y="-674.3" font-family="Times,serif" font-size="14.00"> uint32_t nrepeats; </text>
<text text-anchor="middle" x="393" y="-659.3" font-family="Times,serif" font-size="14.00"> WT_COL_RLE repeats[0]; </text>
<text text-anchor="middle" x="393" y="-644.3" font-family="Times,serif" font-size="14.00"> } * repeats</text>
<text text-anchor="middle" x="393" y="-629.3" font-family="Times,serif" font-size="14.00">; } col_var</text>
<text text-anchor="middle" x="393" y="-614.3" font-family="Times,serif" font-size="14.00"> }u</text>
<polyline fill="none" stroke="black" points="292,-606.5 494,-606.5"/>
<text text-anchor="middle" x="393" y="-591.3" font-family="Times,serif" font-size="14.00">uint32_t entries</text>
<polyline fill="none" stroke="black" points="292,-583.5 494,-583.5"/>
<text text-anchor="middle" x="393" y="-568.3" font-family="Times,serif" font-size="14.00">uint8_t type</text>
<polyline fill="none" stroke="black" points="292,-560.5 494,-560.5"/>
<text text-anchor="middle" x="393" y="-545.3" font-family="Times,serif" font-size="14.00">uint8_t flags_atomic</text>
<polyline fill="none" stroke="black" points="292,-537.5 494,-537.5"/>
<text text-anchor="middle" x="393" y="-522.3" font-family="Times,serif" font-size="14.00">uint8_t unused[2]</text>
<polyline fill="none" stroke="black" points="292,-514.5 494,-514.5"/>
<text text-anchor="middle" x="393" y="-499.3" font-family="Times,serif" font-size="14.00">uint64_t read_gen</text>
<polyline fill="none" stroke="black" points="292,-491.5 494,-491.5"/>
<text text-anchor="middle" x="393" y="-476.3" font-family="Times,serif" font-size="14.00">size_t memory_footprint</text>
<polyline fill="none" stroke="black" points="292,-468.5 494,-468.5"/>
<text text-anchor="middle" x="393" y="-453.3" font-family="Times,serif" font-size="14.00">const WT_PAGE_HEADER *dsk</text>
<polyline fill="none" stroke="black" points="292,-445.5 494,-445.5"/>
<text text-anchor="middle" x="393" y="-430.3" font-family="Times,serif" font-size="14.00">WT_PAGE_MODIFY *modify</text>
<polyline fill="none" stroke="black" points="292,-422.5 494,-422.5"/>
<text text-anchor="middle" x="393" y="-407.3" font-family="Times,serif" font-size="14.00">uint64_t cache_create_gen</text>
<polyline fill="none" stroke="black" points="292,-399.5 494,-399.5"/>
<text text-anchor="middle" x="393" y="-384.3" font-family="Times,serif" font-size="14.00">uint64_t evict_pass_gen</text>
</g>
<!-- page_header -->
<g id="node7" class="node">
<title>page_header</title>
<polygon fill="none" stroke="black" points="538,-388 538,-526 744,-526 744,-388 538,-388"/>
<text text-anchor="middle" x="641" y="-510.8" font-family="Times,serif" font-size="14.00">PageHeader</text>
<polyline fill="none" stroke="black" points="538,-503 744,-503"/>
<text text-anchor="middle" x="641" y="-487.8" font-family="Times,serif" font-size="14.00">uint64_t recordno</text>
<polyline fill="none" stroke="black" points="538,-480 744,-480"/>
<text text-anchor="middle" x="641" y="-464.8" font-family="Times,serif" font-size="14.00">uint32_t mem_size</text>
<polyline fill="none" stroke="black" points="538,-457 744,-457"/>
<text text-anchor="middle" x="641" y="-441.8" font-family="Times,serif" font-size="14.00">uint32_t entries | uint32_t data_len</text>
<polyline fill="none" stroke="black" points="538,-434 744,-434"/>
<text text-anchor="middle" x="641" y="-418.8" font-family="Times,serif" font-size="14.00">uint8_t type</text>
<polyline fill="none" stroke="black" points="538,-411 744,-411"/>
<text text-anchor="middle" x="641" y="-395.8" font-family="Times,serif" font-size="14.00">uint8_t unused[2]</text>
</g>
<!-- wt_page&#45;&gt;page_header -->
<g id="edge6" class="edge">
<title>wt_page:page_header&#45;&gt;page_header</title>
<path fill="none" stroke="black" d="M495,-457C505.37,-457 516.16,-457 526.96,-457"/>
<polygon fill="black" stroke="black" points="526.69,-460.5 536.69,-457 526.69,-453.5 526.69,-460.5"/>
</g>
<!-- wt_ref -->
<g id="node2" class="node">
<title>wt_ref</title>
<polygon fill="none" stroke="black" points="16,-312 16,-496 248,-496 248,-312 16,-312"/>
<text text-anchor="middle" x="132" y="-480.8" font-family="Times,serif" font-size="14.00">WT_PAGE *page</text>
<polyline fill="none" stroke="black" points="16,-473 248,-473"/>
<text text-anchor="middle" x="132" y="-457.8" font-family="Times,serif" font-size="14.00">WT_PAGE *volatile home</text>
<polyline fill="none" stroke="black" points="16,-450 248,-450"/>
<text text-anchor="middle" x="132" y="-434.8" font-family="Times,serif" font-size="14.00">volatile uint32_t pindex_hint</text>
<polyline fill="none" stroke="black" points="16,-427 248,-427"/>
<text text-anchor="middle" x="132" y="-411.8" font-family="Times,serif" font-size="14.00">volatile uint32_t state</text>
<polyline fill="none" stroke="black" points="16,-404 248,-404"/>
<text text-anchor="middle" x="132" y="-388.8" font-family="Times,serif" font-size="14.00">void *addr</text>
<polyline fill="none" stroke="black" points="16,-381 248,-381"/>
<text text-anchor="middle" x="132" y="-365.8" font-family="Times,serif" font-size="14.00">union {uint64_t recno; void *ikey;}key</text>
<polyline fill="none" stroke="black" points="16,-358 248,-358"/>
<text text-anchor="middle" x="132" y="-342.8" font-family="Times,serif" font-size="14.00">WT_PAGE_DELETED *page_del</text>
<polyline fill="none" stroke="black" points="16,-335 248,-335"/>
<text text-anchor="middle" x="132" y="-319.8" font-family="Times,serif" font-size="14.00">WT_PAGE_LOOKASIDE *page_las</text>
</g>
<!-- wt_ref&#45;&gt;wt_page -->
<g id="edge5" class="edge">
<title>wt_ref:page&#45;&gt;wt_page</title>
<path fill="none" stroke="black" d="M248,-485C260.07,-485 271.4,-487.55 281.98,-492"/>
<polygon fill="black" stroke="black" points="280.44,-495.14 290.96,-496.39 283.51,-488.85 280.44,-495.14"/>
</g>
<!-- wt_page_deleted -->
<g id="node5" class="node">
<title>wt_page_deleted</title>
<polygon fill="none" stroke="black" points="305.5,-242.5 305.5,-357.5 480.5,-357.5 480.5,-242.5 305.5,-242.5"/>
<text text-anchor="middle" x="393" y="-342.3" font-family="Times,serif" font-size="14.00">volatile uint64_t txnid</text>
<polyline fill="none" stroke="black" points="305.5,-334.5 480.5,-334.5"/>
<text text-anchor="middle" x="393" y="-319.3" font-family="Times,serif" font-size="14.00">wt_timestamp_t timestamp</text>
<polyline fill="none" stroke="black" points="305.5,-311.5 480.5,-311.5"/>
<text text-anchor="middle" x="393" y="-296.3" font-family="Times,serif" font-size="14.00">volatile uint8_t prepare_state</text>
<polyline fill="none" stroke="black" points="305.5,-288.5 480.5,-288.5"/>
<text text-anchor="middle" x="393" y="-273.3" font-family="Times,serif" font-size="14.00">uint32_t previous_state</text>
<polyline fill="none" stroke="black" points="305.5,-265.5 480.5,-265.5"/>
<text text-anchor="middle" x="393" y="-250.3" font-family="Times,serif" font-size="14.00">WT_UPDATE **update_list</text>
</g>
<!-- wt_ref&#45;&gt;wt_page_deleted -->
<g id="edge3" class="edge">
<title>wt_ref:delete&#45;&gt;wt_page_deleted:header</title>
<path fill="none" stroke="black" d="M248,-346C268.61,-346 276.42,-346 292.63,-346"/>
<polygon fill="black" stroke="black" points="292.49,-349.5 302.49,-346 292.49,-342.5 292.49,-349.5"/>
</g>
<!-- wt_page_lookaside -->
<g id="node6" class="node">
<title>wt_page_lookaside</title>
<polygon fill="none" stroke="black" points="284,-16.5 284,-223.5 502,-223.5 502,-16.5 284,-16.5"/>
<text text-anchor="middle" x="393" y="-208.3" font-family="Times,serif" font-size="14.00">uint64_t las_pageid</text>
<polyline fill="none" stroke="black" points="284,-200.5 502,-200.5"/>
<text text-anchor="middle" x="393" y="-185.3" font-family="Times,serif" font-size="14.00">uint64_t max_txn</text>
<polyline fill="none" stroke="black" points="284,-177.5 502,-177.5"/>
<text text-anchor="middle" x="393" y="-162.3" font-family="Times,serif" font-size="14.00">uint64_t unstable_txn</text>
<polyline fill="none" stroke="black" points="284,-154.5 502,-154.5"/>
<text text-anchor="middle" x="393" y="-139.3" font-family="Times,serif" font-size="14.00">wt_timestamp_t max_timestamp</text>
<polyline fill="none" stroke="black" points="284,-131.5 502,-131.5"/>
<text text-anchor="middle" x="393" y="-116.3" font-family="Times,serif" font-size="14.00">wt_timestamp_t unstable_timestamp</text>
<polyline fill="none" stroke="black" points="284,-108.5 502,-108.5"/>
<text text-anchor="middle" x="393" y="-93.3" font-family="Times,serif" font-size="14.00">bool eviction_to_lookaside</text>
<polyline fill="none" stroke="black" points="284,-85.5 502,-85.5"/>
<text text-anchor="middle" x="393" y="-70.3" font-family="Times,serif" font-size="14.00">bool has_prepares</text>
<polyline fill="none" stroke="black" points="284,-62.5 502,-62.5"/>
<text text-anchor="middle" x="393" y="-47.3" font-family="Times,serif" font-size="14.00">bool resolved</text>
<polyline fill="none" stroke="black" points="284,-39.5 502,-39.5"/>
<text text-anchor="middle" x="393" y="-24.3" font-family="Times,serif" font-size="14.00">bool skew_newest</text>
</g>
<!-- wt_ref&#45;&gt;wt_page_lookaside -->
<g id="edge4" class="edge">
<title>wt_ref:las&#45;&gt;wt_page_lookaside:header</title>
<path fill="none" stroke="black" d="M248,-323C295.41,-323 242.89,-230.26 273.13,-214.32"/>
<polygon fill="black" stroke="black" points="273.47,-217.82 282.52,-212.32 272.01,-210.98 273.47,-217.82"/>
</g>
<!-- wt_update -->
<g id="node3" class="node">
<title>wt_update</title>
<polygon fill="none" stroke="black" points="553.5,-104.5 553.5,-265.5 728.5,-265.5 728.5,-104.5 553.5,-104.5"/>
<text text-anchor="middle" x="641" y="-250.3" font-family="Times,serif" font-size="14.00">volatile uint64_t txnid</text>
<polyline fill="none" stroke="black" points="553.5,-242.5 728.5,-242.5"/>
<text text-anchor="middle" x="641" y="-227.3" font-family="Times,serif" font-size="14.00">wt_timestamp_t timestamp</text>
<polyline fill="none" stroke="black" points="553.5,-219.5 728.5,-219.5"/>
<text text-anchor="middle" x="641" y="-204.3" font-family="Times,serif" font-size="14.00">WT_UPDATE *next</text>
<polyline fill="none" stroke="black" points="553.5,-196.5 728.5,-196.5"/>
<text text-anchor="middle" x="641" y="-181.3" font-family="Times,serif" font-size="14.00">uint32_t size</text>
<polyline fill="none" stroke="black" points="553.5,-173.5 728.5,-173.5"/>
<text text-anchor="middle" x="641" y="-158.3" font-family="Times,serif" font-size="14.00">uint8_t type</text>
<polyline fill="none" stroke="black" points="553.5,-150.5 728.5,-150.5"/>
<text text-anchor="middle" x="641" y="-135.3" font-family="Times,serif" font-size="14.00">volatile uint8_t prepare_state</text>
<polyline fill="none" stroke="black" points="553.5,-127.5 728.5,-127.5"/>
<text text-anchor="middle" x="641" y="-112.3" font-family="Times,serif" font-size="14.00">uint8_t data[]</text>
</g>
<!-- wt_update2 -->
<g id="node4" class="node">
<title>wt_update2</title>
<polygon fill="none" stroke="black" points="780,-58.5 780,-219.5 955,-219.5 955,-58.5 780,-58.5"/>
<text text-anchor="middle" x="867.5" y="-204.3" font-family="Times,serif" font-size="14.00">volatile uint64_t txnid</text>
<polyline fill="none" stroke="black" points="780,-196.5 955,-196.5"/>
<text text-anchor="middle" x="867.5" y="-181.3" font-family="Times,serif" font-size="14.00">wt_timestamp_t timestamp</text>
<polyline fill="none" stroke="black" points="780,-173.5 955,-173.5"/>
<text text-anchor="middle" x="867.5" y="-158.3" font-family="Times,serif" font-size="14.00">WT_UPDATE *next</text>
<polyline fill="none" stroke="black" points="780,-150.5 955,-150.5"/>
<text text-anchor="middle" x="867.5" y="-135.3" font-family="Times,serif" font-size="14.00">uint32_t size</text>
<polyline fill="none" stroke="black" points="780,-127.5 955,-127.5"/>
<text text-anchor="middle" x="867.5" y="-112.3" font-family="Times,serif" font-size="14.00">uint8_t type</text>
<polyline fill="none" stroke="black" points="780,-104.5 955,-104.5"/>
<text text-anchor="middle" x="867.5" y="-89.3" font-family="Times,serif" font-size="14.00">volatile uint8_t prepare_state</text>
<polyline fill="none" stroke="black" points="780,-81.5 955,-81.5"/>
<text text-anchor="middle" x="867.5" y="-66.3" font-family="Times,serif" font-size="14.00">uint8_t data[]</text>
</g>
<!-- wt_update&#45;&gt;wt_update2 -->
<g id="edge1" class="edge">
<title>wt_update:next&#45;&gt;wt_update2:header</title>
<path fill="none" stroke="black" d="M730,-208C747.88,-208 754.97,-208 768.64,-208"/>
<polygon fill="black" stroke="black" points="768.49,-211.5 778.49,-208 768.49,-204.5 768.49,-211.5"/>
</g>
<!-- wt_page_deleted&#45;&gt;wt_update -->
<g id="edge2" class="edge">
<title>wt_page_deleted:update_list&#45;&gt;wt_update:header</title>
<path fill="none" stroke="black" d="M482,-254C508.98,-254 518.41,-254 540.73,-254"/>
<polygon fill="black" stroke="black" points="540.49,-257.5 550.49,-254 540.49,-250.5 540.49,-257.5"/>
</g>
<!-- block_header -->
<g id="node8" class="node">
<title>block_header</title>
<polygon fill="none" stroke="black" points="72,-97.5 72,-212.5 192,-212.5 192,-97.5 72,-97.5"/>
<text text-anchor="middle" x="132" y="-197.3" font-family="Times,serif" font-size="14.00">wt_block_header</text>
<polyline fill="none" stroke="black" points="72,-189.5 192,-189.5"/>
<text text-anchor="middle" x="132" y="-174.3" font-family="Times,serif" font-size="14.00">uint32_t disk_size</text>
<polyline fill="none" stroke="black" points="72,-166.5 192,-166.5"/>
<text text-anchor="middle" x="132" y="-151.3" font-family="Times,serif" font-size="14.00">uint32_t checksum</text>
<polyline fill="none" stroke="black" points="72,-143.5 192,-143.5"/>
<text text-anchor="middle" x="132" y="-128.3" font-family="Times,serif" font-size="14.00">uint8_t flags</text>
<polyline fill="none" stroke="black" points="72,-120.5 192,-120.5"/>
<text text-anchor="middle" x="132" y="-105.3" font-family="Times,serif" font-size="14.00">uint8_t unused[3]</text>
</g>
</g>
</svg>
