<?xml version="1.0" encoding="UTF-8" standalone="no"?>
<!DOCTYPE svg PUBLIC "-//W3C//DTD SVG 1.1//EN"
 "http://www.w3.org/Graphics/SVG/1.1/DTD/svg11.dtd">
<!-- Generated by graphviz version 7.0.4 (20221203.1631)
 -->
<!-- Pages: 1 -->
<svg width="1043pt" height="341pt"
 viewBox="0.00 0.00 1043.00 341.00" xmlns="http://www.w3.org/2000/svg" xmlns:xlink="http://www.w3.org/1999/xlink">
<g id="graph0" class="graph" transform="scale(1 1) rotate(0) translate(4 337)">
<polygon fill="white" stroke="none" points="-4,4 -4,-337 1039,-337 1039,4 -4,4"/>
<g id="clust1" class="cluster">
<title>cluster_thread</title>
<polygon fill="none" stroke="black" points="8,-8 8,-325 1027,-325 1027,-8 8,-8"/>
<text text-anchor="middle" x="517.5" y="-309.8" font-family="Times,serif" font-size="14.00">thread</text>
</g>
<!-- wt_thread_t -->
<g id="node1" class="node">
<title>wt_thread_t</title>
<polygon fill="none" stroke="black" points="936,-108.5 936,-177.5 1019,-177.5 1019,-108.5 936,-108.5"/>
<text text-anchor="middle" x="977.5" y="-162.3" font-family="Times,serif" font-size="14.00">wt_thread_t</text>
<polyline fill="none" stroke="black" points="936,-154.5 1019,-154.5"/>
<text text-anchor="middle" x="977.5" y="-139.3" font-family="Times,serif" font-size="14.00">bool created</text>
<polyline fill="none" stroke="black" points="936,-131.5 1019,-131.5"/>
<text text-anchor="middle" x="977.5" y="-116.3" font-family="Times,serif" font-size="14.00">pthread_t id</text>
</g>
<!-- __wt_thread -->
<g id="node2" class="node">
<title>__wt_thread</title>
<polygon fill="none" stroke="black" points="476,-16.5 476,-223.5 900,-223.5 900,-16.5 476,-16.5"/>
<text text-anchor="middle" x="688" y="-208.3" font-family="Times,serif" font-size="14.00">WT_THREAD</text>
<polyline fill="none" stroke="black" points="476,-200.5 900,-200.5"/>
<text text-anchor="middle" x="688" y="-185.3" font-family="Times,serif" font-size="14.00">WT_SESSION_IMPL *session</text>
<polyline fill="none" stroke="black" points="476,-177.5 900,-177.5"/>
<text text-anchor="middle" x="688" y="-162.3" font-family="Times,serif" font-size="14.00">u_int id</text>
<polyline fill="none" stroke="black" points="476,-154.5 900,-154.5"/>
<text text-anchor="middle" x="688" y="-139.3" font-family="Times,serif" font-size="14.00">wt_thread_t tid</text>
<polyline fill="none" stroke="black" points="476,-131.5 900,-131.5"/>
<text text-anchor="middle" x="688" y="-116.3" font-family="Times,serif" font-size="14.00">uint32_t flags</text>
<polyline fill="none" stroke="black" points="476,-108.5 900,-108.5"/>
<text text-anchor="middle" x="688" y="-93.3" font-family="Times,serif" font-size="14.00">WT_CONDVAR *pause_cond</text>
<polyline fill="none" stroke="black" points="476,-85.5 900,-85.5"/>
<text text-anchor="middle" x="688" y="-70.3" font-family="Times,serif" font-size="14.00">bool (*chk_func)(WT_SESSION_IMPL *session)</text>
<polyline fill="none" stroke="black" points="476,-62.5 900,-62.5"/>
<text text-anchor="middle" x="688" y="-47.3" font-family="Times,serif" font-size="14.00">int (*run_func)(WT_SESSION_IMPL *session, WT_THREAD *context)</text>
<polyline fill="none" stroke="black" points="476,-39.5 900,-39.5"/>
<text text-anchor="middle" x="688" y="-24.3" font-family="Times,serif" font-size="14.00">int (*stop_func)(WT_SESSION_IMPL *session, WT_THREAD *context)</text>
</g>
<!-- __wt_thread&#45;&gt;wt_thread_t -->
<g id="edge2" class="edge">
<title>__wt_thread:thread_t&#45;&gt;wt_thread_t</title>
<path fill="none" stroke="black" d="M900,-143C907.94,-143 916.35,-143 924.57,-143"/>
<polygon fill="black" stroke="black" points="924.49,-146.5 934.49,-143 924.49,-139.5 924.49,-146.5"/>
</g>
<!-- __wt_thread_group -->
<g id="node3" class="node">
<title>__wt_thread_group</title>
<polygon fill="none" stroke="black" points="16,-17 16,-293 440,-293 440,-17 16,-17"/>
<text text-anchor="middle" x="228" y="-277.8" font-family="Times,serif" font-size="14.00">WT_THREAD_GROUP</text>
<polyline fill="none" stroke="black" points="16,-270 440,-270"/>
<text text-anchor="middle" x="228" y="-254.8" font-family="Times,serif" font-size="14.00">uint32_t alloc</text>
<polyline fill="none" stroke="black" points="16,-247 440,-247"/>
<text text-anchor="middle" x="228" y="-231.8" font-family="Times,serif" font-size="14.00">uint32_t max</text>
<polyline fill="none" stroke="black" points="16,-224 440,-224"/>
<text text-anchor="middle" x="228" y="-208.8" font-family="Times,serif" font-size="14.00">uint32_t min</text>
<polyline fill="none" stroke="black" points="16,-201 440,-201"/>
<text text-anchor="middle" x="228" y="-185.8" font-family="Times,serif" font-size="14.00">uint32_t current_threads</text>
<polyline fill="none" stroke="black" points="16,-178 440,-178"/>
<text text-anchor="middle" x="228" y="-162.8" font-family="Times,serif" font-size="14.00">const char *name</text>
<polyline fill="none" stroke="black" points="16,-155 440,-155"/>
<text text-anchor="middle" x="228" y="-139.8" font-family="Times,serif" font-size="14.00">WT_RWLOCK lock</text>
<polyline fill="none" stroke="black" points="16,-132 440,-132"/>
<text text-anchor="middle" x="228" y="-116.8" font-family="Times,serif" font-size="14.00">WT_CONDVAR *wait_cond</text>
<polyline fill="none" stroke="black" points="16,-109 440,-109"/>
<text text-anchor="middle" x="228" y="-93.8" font-family="Times,serif" font-size="14.00">WT_THREAD **threads</text>
<polyline fill="none" stroke="black" points="16,-86 440,-86"/>
<text text-anchor="middle" x="228" y="-70.8" font-family="Times,serif" font-size="14.00">bool (*chk_func)(WT_SESSION_IMPL *session)</text>
<polyline fill="none" stroke="black" points="16,-63 440,-63"/>
<text text-anchor="middle" x="228" y="-47.8" font-family="Times,serif" font-size="14.00">int (*run_func)(WT_SESSION_IMPL *session, WT_THREAD *context</text>
<polyline fill="none" stroke="black" points="16,-40 440,-40"/>
<text text-anchor="middle" x="228" y="-24.8" font-family="Times,serif" font-size="14.00">int (*stop_func)(WT_SESSION_IMPL *session, WT_THREAD *context)</text>
</g>
<!-- __wt_thread_group&#45;&gt;__wt_thread -->
<g id="edge1" class="edge">
<title>__wt_thread_group:wt_thread&#45;&gt;__wt_thread</title>
<path fill="none" stroke="black" d="M440,-97C448.14,-97 456.43,-97.13 464.8,-97.36"/>
<polygon fill="black" stroke="black" points="464.62,-100.85 474.73,-97.69 464.85,-93.86 464.62,-100.85"/>
</g>
</g>
</svg>
