<?xml version="1.0" encoding="UTF-8" standalone="no"?>
<!DOCTYPE svg PUBLIC "-//W3C//DTD SVG 1.1//EN"
 "http://www.w3.org/Graphics/SVG/1.1/DTD/svg11.dtd">
<!-- Generated by graphviz version 7.0.4 (20221203.1631)
 -->
<!-- Title: txn Pages: 1 -->
<svg width="659pt" height="893pt"
 viewBox="0.00 0.00 659.00 893.00" xmlns="http://www.w3.org/2000/svg" xmlns:xlink="http://www.w3.org/1999/xlink">
<g id="graph0" class="graph" transform="scale(1 1) rotate(0) translate(4 889)">
<title>txn</title>
<polygon fill="white" stroke="none" points="-4,4 -4,-889 655,-889 655,4 -4,4"/>
<g id="clust1" class="cluster">
<title>cluster_txn_global</title>
<polygon fill="none" stroke="black" points="8,-8 8,-877 643,-877 643,-8 8,-8"/>
<text text-anchor="middle" x="325.5" y="-861.8" font-family="Times,serif" font-size="14.00">wt_txn_global</text>
</g>
<!-- wt_txn_global -->
<g id="node1" class="node">
<title>wt_txn_global</title>
<polygon fill="none" stroke="black" points="16,-17 16,-845 396,-845 396,-17 16,-17"/>
<text text-anchor="middle" x="206" y="-829.8" font-family="Times,serif" font-size="14.00">volatile uint64_t current</text>
<polyline fill="none" stroke="black" points="16,-822 396,-822"/>
<text text-anchor="middle" x="206" y="-806.8" font-family="Times,serif" font-size="14.00">volatile uint64_t last_running</text>
<polyline fill="none" stroke="black" points="16,-799 396,-799"/>
<text text-anchor="middle" x="206" y="-783.8" font-family="Times,serif" font-size="14.00">volatile uint64_t oldest_id</text>
<polyline fill="none" stroke="black" points="16,-776 396,-776"/>
<text text-anchor="middle" x="206" y="-760.8" font-family="Times,serif" font-size="14.00">wt_timestamp_t commit_timestamp</text>
<polyline fill="none" stroke="black" points="16,-753 396,-753"/>
<text text-anchor="middle" x="206" y="-737.8" font-family="Times,serif" font-size="14.00">wt_timestamp_t last_ckpt_timestamp</text>
<polyline fill="none" stroke="black" points="16,-730 396,-730"/>
<text text-anchor="middle" x="206" y="-714.8" font-family="Times,serif" font-size="14.00">wt_timestamp_t meta_ckpt_timestamp</text>
<polyline fill="none" stroke="black" points="16,-707 396,-707"/>
<text text-anchor="middle" x="206" y="-691.8" font-family="Times,serif" font-size="14.00">wt_timestamp_t oldest_timestamp</text>
<polyline fill="none" stroke="black" points="16,-684 396,-684"/>
<text text-anchor="middle" x="206" y="-668.8" font-family="Times,serif" font-size="14.00">wt_timestamp_t pinned_timestamp</text>
<polyline fill="none" stroke="black" points="16,-661 396,-661"/>
<text text-anchor="middle" x="206" y="-645.8" font-family="Times,serif" font-size="14.00">wt_timestamp_t recovery_timestamp</text>
<polyline fill="none" stroke="black" points="16,-638 396,-638"/>
<text text-anchor="middle" x="206" y="-622.8" font-family="Times,serif" font-size="14.00">wt_timestamp_t stable_timestamp</text>
<polyline fill="none" stroke="black" points="16,-615 396,-615"/>
<text text-anchor="middle" x="206" y="-599.8" font-family="Times,serif" font-size="14.00">bool has_commit_timestamp</text>
<polyline fill="none" stroke="black" points="16,-592 396,-592"/>
<text text-anchor="middle" x="206" y="-576.8" font-family="Times,serif" font-size="14.00">bool has_oldest_timestamp</text>
<polyline fill="none" stroke="black" points="16,-569 396,-569"/>
<text text-anchor="middle" x="206" y="-553.8" font-family="Times,serif" font-size="14.00">bool has_pinned_timestamp</text>
<polyline fill="none" stroke="black" points="16,-546 396,-546"/>
<text text-anchor="middle" x="206" y="-530.8" font-family="Times,serif" font-size="14.00">bool has_stable_timestamp</text>
<polyline fill="none" stroke="black" points="16,-523 396,-523"/>
<text text-anchor="middle" x="206" y="-507.8" font-family="Times,serif" font-size="14.00">bool oldest_is_pinned</text>
<polyline fill="none" stroke="black" points="16,-500 396,-500"/>
<text text-anchor="middle" x="206" y="-484.8" font-family="Times,serif" font-size="14.00">bool stable_is_pinned</text>
<polyline fill="none" stroke="black" points="16,-477 396,-477"/>
<text text-anchor="middle" x="206" y="-461.8" font-family="Times,serif" font-size="14.00">WT_SPINLOCK id_lock</text>
<polyline fill="none" stroke="black" points="16,-454 396,-454"/>
<text text-anchor="middle" x="206" y="-438.8" font-family="Times,serif" font-size="14.00">WT_RWLOCK rwlock</text>
<polyline fill="none" stroke="black" points="16,-431 396,-431"/>
<text text-anchor="middle" x="206" y="-415.8" font-family="Times,serif" font-size="14.00">WT_RWLOCK visibility_rwlock</text>
<polyline fill="none" stroke="black" points="16,-408 396,-408"/>
<text text-anchor="middle" x="206" y="-392.8" font-family="Times,serif" font-size="14.00">WT_RWLOCK commit_timestamp_rwlock</text>
<polyline fill="none" stroke="black" points="16,-385 396,-385"/>
<text text-anchor="middle" x="206" y="-369.8" font-family="Times,serif" font-size="14.00">TAILQ_HEAD(__wt_txn_cts_qh, __wt_txn) commit_timestamph</text>
<polyline fill="none" stroke="black" points="16,-362 396,-362"/>
<text text-anchor="middle" x="206" y="-346.8" font-family="Times,serif" font-size="14.00">uint32_t commit_timestampq_len</text>
<polyline fill="none" stroke="black" points="16,-339 396,-339"/>
<text text-anchor="middle" x="206" y="-323.8" font-family="Times,serif" font-size="14.00">WT_RWLOCK read_timestamp_rwlock</text>
<polyline fill="none" stroke="black" points="16,-316 396,-316"/>
<text text-anchor="middle" x="206" y="-300.8" font-family="Times,serif" font-size="14.00">TAILQ_HEAD(__wt_txn_rts_qh, __wt_txn) read_timestamph</text>
<polyline fill="none" stroke="black" points="16,-293 396,-293"/>
<text text-anchor="middle" x="206" y="-277.8" font-family="Times,serif" font-size="14.00">uint32_t read_timestampq_len</text>
<polyline fill="none" stroke="black" points="16,-270 396,-270"/>
<text text-anchor="middle" x="206" y="-254.8" font-family="Times,serif" font-size="14.00">volatile bool checkpoint_running</text>
<polyline fill="none" stroke="black" points="16,-247 396,-247"/>
<text text-anchor="middle" x="206" y="-231.8" font-family="Times,serif" font-size="14.00">volatile uint32_t checkpoint_id</text>
<polyline fill="none" stroke="black" points="16,-224 396,-224"/>
<text text-anchor="middle" x="206" y="-208.8" font-family="Times,serif" font-size="14.00">WT_TXN_STATE checkpoint_state</text>
<polyline fill="none" stroke="black" points="16,-201 396,-201"/>
<text text-anchor="middle" x="206" y="-185.8" font-family="Times,serif" font-size="14.00">wt_timestamp_t checkpoint_timestamp</text>
<polyline fill="none" stroke="black" points="16,-178 396,-178"/>
<text text-anchor="middle" x="206" y="-162.8" font-family="Times,serif" font-size="14.00">volatile uint64_t debug_ops</text>
<polyline fill="none" stroke="black" points="16,-155 396,-155"/>
<text text-anchor="middle" x="206" y="-139.8" font-family="Times,serif" font-size="14.00">uint64_t debug_rollback</text>
<polyline fill="none" stroke="black" points="16,-132 396,-132"/>
<text text-anchor="middle" x="206" y="-116.8" font-family="Times,serif" font-size="14.00">volatile uint64_t metadata_pinned</text>
<polyline fill="none" stroke="black" points="16,-109 396,-109"/>
<text text-anchor="middle" x="206" y="-93.8" font-family="Times,serif" font-size="14.00">WT_RWLOCK nsnap_rwlock</text>
<polyline fill="none" stroke="black" points="16,-86 396,-86"/>
<text text-anchor="middle" x="206" y="-70.8" font-family="Times,serif" font-size="14.00">volatile uint64_t nsnap_oldest_id</text>
<polyline fill="none" stroke="black" points="16,-63 396,-63"/>
<text text-anchor="middle" x="206" y="-47.8" font-family="Times,serif" font-size="14.00">TAILQ_HEAD(__wt_nsnap_qh, __wt_named_snapshot) nsnaph</text>
<polyline fill="none" stroke="black" points="16,-40 396,-40"/>
<text text-anchor="middle" x="206" y="-24.8" font-family="Times,serif" font-size="14.00">WT_TXN_STATE *states</text>
</g>
<!-- txn_state -->
<g id="node2" class="node">
<title>txn_state</title>
<polygon fill="none" stroke="black" points="432,-16.5 432,-85.5 635,-85.5 635,-16.5 432,-16.5"/>
<text text-anchor="middle" x="533.5" y="-70.3" font-family="Times,serif" font-size="14.00">volatile uint64_t id</text>
<polyline fill="none" stroke="black" points="432,-62.5 635,-62.5"/>
<text text-anchor="middle" x="533.5" y="-47.3" font-family="Times,serif" font-size="14.00">volatile uint64_t pinned_id</text>
<polyline fill="none" stroke="black" points="432,-39.5 635,-39.5"/>
<text text-anchor="middle" x="533.5" y="-24.3" font-family="Times,serif" font-size="14.00">volatile uint64_t metadata_pinned</text>
</g>
<!-- wt_txn_global&#45;&gt;txn_state -->
<g id="edge1" class="edge">
<title>wt_txn_global:txn_state&#45;&gt;txn_state:header</title>
<path fill="none" stroke="black" d="M396,-28C417.3,-28 410.41,-58.95 421.58,-70.08"/>
<polygon fill="black" stroke="black" points="419.99,-73.22 430.58,-73.47 422.46,-66.67 419.99,-73.22"/>
</g>
<!-- txn_state2 -->
<g id="node3" class="node">
<title>txn_state2</title>
<polygon fill="none" stroke="black" points="432,-154.5 432,-223.5 635,-223.5 635,-154.5 432,-154.5"/>
<text text-anchor="middle" x="533.5" y="-208.3" font-family="Times,serif" font-size="14.00">volatile uint64_t id</text>
<polyline fill="none" stroke="black" points="432,-200.5 635,-200.5"/>
<text text-anchor="middle" x="533.5" y="-185.3" font-family="Times,serif" font-size="14.00">volatile uint64_t pinned_id</text>
<polyline fill="none" stroke="black" points="432,-177.5 635,-177.5"/>
<text text-anchor="middle" x="533.5" y="-162.3" font-family="Times,serif" font-size="14.00">volatile uint64_t metadata_pinned</text>
</g>
<!-- wt_txn_global&#45;&gt;txn_state2 -->
<g id="edge2" class="edge">
<title>wt_txn_global:checkpoint_state&#45;&gt;txn_state2:header</title>
<path fill="none" stroke="black" d="M396,-212C407.38,-212 412.68,-212 420.55,-212"/>
<polygon fill="black" stroke="black" points="420.49,-215.5 430.49,-212 420.49,-208.5 420.49,-215.5"/>
</g>
</g>
</svg>
